<svg width="500" height="392" viewBox="0 0 500 392" fill="none" xmlns="http://www.w3.org/2000/svg">
<rect x="15.5" y="15.5" width="282" height="67" rx="3.5" fill="white" stroke="#900228"/>
<path d="M81.5039 49.085H75.958V53.6201H82.4004V55H74.2705V42.2031H82.3125V43.5918H75.958V47.7051H81.5039V49.085ZM87.4365 48.9619L89.5459 45.4902H91.4443L88.333 50.1924L91.541 55H89.6602L87.4629 51.4404L85.2656 55H83.376L86.584 50.1924L83.4727 45.4902H85.3535L87.4365 48.9619ZM96.9463 55.1758C95.6572 55.1758 94.6084 54.7539 93.7998 53.9102C92.9912 53.0605 92.5869 51.9268 92.5869 50.5088V50.21C92.5869 49.2666 92.7656 48.4258 93.123 47.6875C93.4863 46.9434 93.9902 46.3633 94.6348 45.9473C95.2852 45.5254 95.9883 45.3145 96.7441 45.3145C97.9805 45.3145 98.9414 45.7217 99.627 46.5361C100.312 47.3506 100.655 48.5166 100.655 50.0342V50.7109H94.2129C94.2363 51.6484 94.5088 52.4072 95.0303 52.9873C95.5576 53.5615 96.2256 53.8486 97.0342 53.8486C97.6084 53.8486 98.0947 53.7314 98.4932 53.4971C98.8916 53.2627 99.2402 52.9521 99.5391 52.5654L100.532 53.3389C99.7354 54.5635 98.54 55.1758 96.9463 55.1758ZM96.7441 46.6504C96.0879 46.6504 95.5371 46.8906 95.0918 47.3711C94.6465 47.8457 94.3711 48.5137 94.2656 49.375H99.0293V49.252C98.9824 48.4258 98.7598 47.7871 98.3613 47.3359C97.9629 46.8789 97.4238 46.6504 96.7441 46.6504ZM106.359 53.8486C106.939 53.8486 107.446 53.6729 107.88 53.3213C108.313 52.9697 108.554 52.5303 108.601 52.0029H110.139C110.109 52.5479 109.922 53.0664 109.576 53.5586C109.23 54.0508 108.768 54.4434 108.188 54.7363C107.613 55.0293 107.004 55.1758 106.359 55.1758C105.064 55.1758 104.033 54.7451 103.266 53.8838C102.504 53.0166 102.123 51.833 102.123 50.333V50.0605C102.123 49.1348 102.293 48.3115 102.633 47.5908C102.973 46.8701 103.459 46.3105 104.092 45.9121C104.73 45.5137 105.483 45.3145 106.351 45.3145C107.417 45.3145 108.302 45.6338 109.005 46.2725C109.714 46.9111 110.092 47.7402 110.139 48.7598H108.601C108.554 48.1445 108.319 47.6406 107.897 47.248C107.481 46.8496 106.966 46.6504 106.351 46.6504C105.524 46.6504 104.883 46.9492 104.426 47.5469C103.975 48.1387 103.749 48.9971 103.749 50.1221V50.4297C103.749 51.5254 103.975 52.3691 104.426 52.9609C104.877 53.5527 105.521 53.8486 106.359 53.8486ZM117.838 54.0596C117.205 54.8037 116.276 55.1758 115.052 55.1758C114.038 55.1758 113.265 54.8828 112.731 54.2969C112.204 53.7051 111.938 52.832 111.932 51.6777V45.4902H113.558V51.6338C113.558 53.0752 114.144 53.7959 115.315 53.7959C116.558 53.7959 117.384 53.333 117.794 52.4072V45.4902H119.42V55H117.873L117.838 54.0596ZM124.104 43.1875V45.4902H125.88V46.7471H124.104V52.6445C124.104 53.0254 124.184 53.3125 124.342 53.5059C124.5 53.6934 124.77 53.7871 125.15 53.7871C125.338 53.7871 125.596 53.752 125.924 53.6816V55C125.496 55.1172 125.08 55.1758 124.676 55.1758C123.949 55.1758 123.401 54.9561 123.032 54.5166C122.663 54.0771 122.479 53.4531 122.479 52.6445V46.7471H120.747V45.4902H122.479V43.1875H124.104ZM129.554 55H127.928V45.4902H129.554V55ZM127.796 42.9678C127.796 42.7041 127.875 42.4814 128.033 42.2998C128.197 42.1182 128.438 42.0273 128.754 42.0273C129.07 42.0273 129.311 42.1182 129.475 42.2998C129.639 42.4814 129.721 42.7041 129.721 42.9678C129.721 43.2314 129.639 43.4512 129.475 43.627C129.311 43.8027 129.07 43.8906 128.754 43.8906C128.438 43.8906 128.197 43.8027 128.033 43.627C127.875 43.4512 127.796 43.2314 127.796 42.9678ZM135.302 52.7939L137.657 45.4902H139.318L135.908 55H134.669L131.224 45.4902H132.885L135.302 52.7939ZM144.706 55.1758C143.417 55.1758 142.368 54.7539 141.56 53.9102C140.751 53.0605 140.347 51.9268 140.347 50.5088V50.21C140.347 49.2666 140.525 48.4258 140.883 47.6875C141.246 46.9434 141.75 46.3633 142.395 45.9473C143.045 45.5254 143.748 45.3145 144.504 45.3145C145.74 45.3145 146.701 45.7217 147.387 46.5361C148.072 47.3506 148.415 48.5166 148.415 50.0342V50.7109H141.973C141.996 51.6484 142.269 52.4072 142.79 52.9873C143.317 53.5615 143.985 53.8486 144.794 53.8486C145.368 53.8486 145.854 53.7314 146.253 53.4971C146.651 53.2627 147 52.9521 147.299 52.5654L148.292 53.3389C147.495 54.5635 146.3 55.1758 144.706 55.1758ZM144.504 46.6504C143.848 46.6504 143.297 46.8906 142.852 47.3711C142.406 47.8457 142.131 48.5137 142.025 49.375H146.789V49.252C146.742 48.4258 146.52 47.7871 146.121 47.3359C145.723 46.8789 145.184 46.6504 144.504 46.6504ZM155.024 55V42.2031H159.208C160.597 42.2031 161.64 42.4902 162.337 43.0645C163.04 43.6387 163.392 44.4883 163.392 45.6133C163.392 46.2109 163.222 46.7412 162.882 47.2041C162.542 47.6611 162.079 48.0156 161.493 48.2676C162.185 48.4609 162.729 48.8301 163.128 49.375C163.532 49.9141 163.734 50.5586 163.734 51.3086C163.734 52.457 163.362 53.3594 162.618 54.0156C161.874 54.6719 160.822 55 159.463 55H155.024ZM156.712 49.0146V53.6201H159.498C160.283 53.6201 160.901 53.418 161.353 53.0137C161.81 52.6035 162.038 52.041 162.038 51.3262C162.038 49.7852 161.2 49.0146 159.524 49.0146H156.712ZM156.712 47.6611H159.261C159.999 47.6611 160.588 47.4766 161.027 47.1074C161.473 46.7383 161.695 46.2373 161.695 45.6045C161.695 44.9014 161.49 44.3916 161.08 44.0752C160.67 43.7529 160.046 43.5918 159.208 43.5918H156.712V47.6611ZM165.554 50.1572C165.554 49.2256 165.735 48.3877 166.099 47.6436C166.468 46.8994 166.978 46.3252 167.628 45.9209C168.284 45.5166 169.031 45.3145 169.869 45.3145C171.164 45.3145 172.21 45.7627 173.007 46.6592C173.81 47.5557 174.211 48.748 174.211 50.2363V50.3506C174.211 51.2764 174.032 52.1084 173.675 52.8467C173.323 53.5791 172.816 54.1504 172.154 54.5605C171.498 54.9707 170.742 55.1758 169.887 55.1758C168.598 55.1758 167.552 54.7275 166.749 53.8311C165.952 52.9346 165.554 51.748 165.554 50.2715V50.1572ZM167.188 50.3506C167.188 51.4053 167.432 52.252 167.918 52.8906C168.41 53.5293 169.066 53.8486 169.887 53.8486C170.713 53.8486 171.369 53.5264 171.855 52.8818C172.342 52.2314 172.585 51.3232 172.585 50.1572C172.585 49.1143 172.336 48.2705 171.838 47.626C171.346 46.9756 170.689 46.6504 169.869 46.6504C169.066 46.6504 168.419 46.9697 167.927 47.6084C167.435 48.2471 167.188 49.1611 167.188 50.3506ZM182.121 55C182.027 54.8125 181.951 54.4785 181.893 53.998C181.137 54.7832 180.234 55.1758 179.186 55.1758C178.248 55.1758 177.478 54.9121 176.874 54.3848C176.276 53.8516 175.978 53.1777 175.978 52.3633C175.978 51.373 176.353 50.6055 177.103 50.0605C177.858 49.5098 178.919 49.2344 180.284 49.2344H181.866V48.4873C181.866 47.9189 181.696 47.4678 181.356 47.1338C181.017 46.7939 180.516 46.624 179.854 46.624C179.273 46.624 178.787 46.7705 178.395 47.0635C178.002 47.3564 177.806 47.7109 177.806 48.127H176.171C176.171 47.6523 176.338 47.1953 176.672 46.7559C177.012 46.3105 177.469 45.959 178.043 45.7012C178.623 45.4434 179.259 45.3145 179.95 45.3145C181.046 45.3145 181.904 45.5898 182.525 46.1406C183.146 46.6855 183.469 47.4385 183.492 48.3994V52.7764C183.492 53.6494 183.604 54.3438 183.826 54.8594V55H182.121ZM179.423 53.7607C179.933 53.7607 180.416 53.6289 180.873 53.3652C181.33 53.1016 181.661 52.7588 181.866 52.3369V50.3857H180.592C178.6 50.3857 177.604 50.9688 177.604 52.1348C177.604 52.6445 177.773 53.043 178.113 53.3301C178.453 53.6172 178.89 53.7607 179.423 53.7607ZM190.638 46.9492C190.392 46.9082 190.125 46.8877 189.838 46.8877C188.771 46.8877 188.048 47.3418 187.667 48.25V55H186.041V45.4902H187.623L187.649 46.5889C188.183 45.7393 188.938 45.3145 189.917 45.3145C190.233 45.3145 190.474 45.3555 190.638 45.4375V46.9492ZM191.569 50.166C191.569 48.707 191.915 47.5352 192.606 46.6504C193.298 45.7598 194.203 45.3145 195.322 45.3145C196.436 45.3145 197.317 45.6953 197.968 46.457V41.5H199.594V55H198.1L198.021 53.9805C197.37 54.7773 196.465 55.1758 195.305 55.1758C194.203 55.1758 193.304 54.7246 192.606 53.8223C191.915 52.9199 191.569 51.7422 191.569 50.2891V50.166ZM193.195 50.3506C193.195 51.4287 193.418 52.2725 193.863 52.8818C194.309 53.4912 194.924 53.7959 195.709 53.7959C196.74 53.7959 197.493 53.333 197.968 52.4072V48.0391C197.481 47.1426 196.734 46.6943 195.727 46.6943C194.93 46.6943 194.309 47.002 193.863 47.6172C193.418 48.2324 193.195 49.1436 193.195 50.3506ZM206.528 49.8057C206.528 48.4814 206.704 47.21 207.056 45.9912C207.413 44.7725 207.943 43.665 208.646 42.6689C209.35 41.6729 210.079 40.9697 210.835 40.5596L211.169 41.6318C210.313 42.2881 209.61 43.29 209.06 44.6377C208.515 45.9854 208.216 47.4941 208.163 49.1641L208.154 49.9111C208.154 52.1729 208.567 54.1357 209.394 55.7998C209.892 56.7959 210.483 57.5752 211.169 58.1377L210.835 59.1309C210.056 58.6973 209.312 57.9707 208.603 56.9512C207.22 54.959 206.528 52.5771 206.528 49.8057ZM220.23 49.085H214.685V53.6201H221.127V55H212.997V42.2031H221.039V43.5918H214.685V47.7051H220.23V49.085ZM223.228 55V42.2031H227.411C228.8 42.2031 229.843 42.4902 230.54 43.0645C231.243 43.6387 231.595 44.4883 231.595 45.6133C231.595 46.2109 231.425 46.7412 231.085 47.2041C230.745 47.6611 230.282 48.0156 229.696 48.2676C230.388 48.4609 230.933 48.8301 231.331 49.375C231.735 49.9141 231.938 50.5586 231.938 51.3086C231.938 52.457 231.565 53.3594 230.821 54.0156C230.077 54.6719 229.025 55 227.666 55H223.228ZM224.915 49.0146V53.6201H227.701C228.486 53.6201 229.104 53.418 229.556 53.0137C230.013 52.6035 230.241 52.041 230.241 51.3262C230.241 49.7852 229.403 49.0146 227.728 49.0146H224.915ZM224.915 47.6611H227.464C228.202 47.6611 228.791 47.4766 229.23 47.1074C229.676 46.7383 229.898 46.2373 229.898 45.6045C229.898 44.9014 229.693 44.3916 229.283 44.0752C228.873 43.7529 228.249 43.5918 227.411 43.5918H224.915V47.6611ZM237.94 49.8936C237.94 51.2002 237.768 52.4541 237.422 53.6553C237.082 54.8506 236.558 55.9551 235.849 56.9688C235.146 57.9824 234.407 58.7031 233.634 59.1309L233.291 58.1377C234.193 57.4463 234.917 56.374 235.462 54.9209C236.013 53.4619 236.294 51.8447 236.306 50.0693V49.7881C236.306 48.5576 236.177 47.415 235.919 46.3604C235.661 45.2998 235.301 44.3506 234.838 43.5127C234.381 42.6748 233.865 42.0215 233.291 41.5527L233.634 40.5596C234.407 40.9873 235.143 41.7021 235.84 42.7041C236.543 43.7061 237.067 44.8105 237.413 46.0176C237.765 47.2246 237.94 48.5166 237.94 49.8936Z" fill="#363636"/>
<rect x="202.5" y="113.5" width="282" height="67" rx="3.5" fill="white" stroke="#900228"/>
<path d="M271.062 149.66H265.7L264.496 153H262.756L267.643 140.203H269.119L274.015 153H272.283L271.062 149.66ZM266.21 148.271H270.561L268.381 142.286L266.21 148.271ZM275.087 148.166C275.087 146.707 275.433 145.535 276.124 144.65C276.815 143.76 277.721 143.314 278.84 143.314C279.953 143.314 280.835 143.695 281.485 144.457V139.5H283.111V153H281.617L281.538 151.98C280.888 152.777 279.982 153.176 278.822 153.176C277.721 153.176 276.821 152.725 276.124 151.822C275.433 150.92 275.087 149.742 275.087 148.289V148.166ZM276.713 148.351C276.713 149.429 276.936 150.272 277.381 150.882C277.826 151.491 278.441 151.796 279.227 151.796C280.258 151.796 281.011 151.333 281.485 150.407V146.039C280.999 145.143 280.252 144.694 279.244 144.694C278.447 144.694 277.826 145.002 277.381 145.617C276.936 146.232 276.713 147.144 276.713 148.351ZM288.78 150.794L291.136 143.49H292.797L289.387 153H288.147L284.702 143.49H286.363L288.78 150.794ZM296.128 153H294.502V143.49H296.128V153ZM294.37 140.968C294.37 140.704 294.449 140.481 294.607 140.3C294.771 140.118 295.012 140.027 295.328 140.027C295.645 140.027 295.885 140.118 296.049 140.3C296.213 140.481 296.295 140.704 296.295 140.968C296.295 141.231 296.213 141.451 296.049 141.627C295.885 141.803 295.645 141.891 295.328 141.891C295.012 141.891 294.771 141.803 294.607 141.627C294.449 141.451 294.37 141.231 294.37 140.968ZM304.275 150.478C304.275 150.038 304.108 149.698 303.774 149.458C303.446 149.212 302.869 149.001 302.043 148.825C301.223 148.649 300.569 148.438 300.083 148.192C299.603 147.946 299.245 147.653 299.011 147.313C298.782 146.974 298.668 146.569 298.668 146.101C298.668 145.321 298.996 144.662 299.652 144.123C300.314 143.584 301.158 143.314 302.184 143.314C303.262 143.314 304.135 143.593 304.803 144.149C305.477 144.706 305.813 145.418 305.813 146.285H304.179C304.179 145.84 303.988 145.456 303.607 145.134C303.232 144.812 302.758 144.65 302.184 144.65C301.592 144.65 301.129 144.779 300.795 145.037C300.461 145.295 300.294 145.632 300.294 146.048C300.294 146.44 300.449 146.736 300.76 146.936C301.07 147.135 301.63 147.325 302.438 147.507C303.253 147.688 303.912 147.905 304.416 148.157C304.92 148.409 305.292 148.714 305.532 149.071C305.778 149.423 305.901 149.854 305.901 150.363C305.901 151.213 305.562 151.896 304.882 152.411C304.202 152.921 303.32 153.176 302.236 153.176C301.475 153.176 300.801 153.041 300.215 152.771C299.629 152.502 299.169 152.127 298.835 151.646C298.507 151.16 298.343 150.636 298.343 150.073H299.969C299.998 150.618 300.215 151.052 300.619 151.374C301.029 151.69 301.568 151.849 302.236 151.849C302.852 151.849 303.344 151.726 303.713 151.479C304.088 151.228 304.275 150.894 304.275 150.478ZM307.589 148.157C307.589 147.226 307.771 146.388 308.134 145.644C308.503 144.899 309.013 144.325 309.663 143.921C310.319 143.517 311.066 143.314 311.904 143.314C313.199 143.314 314.245 143.763 315.042 144.659C315.845 145.556 316.246 146.748 316.246 148.236V148.351C316.246 149.276 316.067 150.108 315.71 150.847C315.358 151.579 314.852 152.15 314.189 152.561C313.533 152.971 312.777 153.176 311.922 153.176C310.633 153.176 309.587 152.728 308.784 151.831C307.987 150.935 307.589 149.748 307.589 148.271V148.157ZM309.224 148.351C309.224 149.405 309.467 150.252 309.953 150.891C310.445 151.529 311.102 151.849 311.922 151.849C312.748 151.849 313.404 151.526 313.891 150.882C314.377 150.231 314.62 149.323 314.62 148.157C314.62 147.114 314.371 146.271 313.873 145.626C313.381 144.976 312.725 144.65 311.904 144.65C311.102 144.65 310.454 144.97 309.962 145.608C309.47 146.247 309.224 147.161 309.224 148.351ZM322.882 144.949C322.636 144.908 322.369 144.888 322.082 144.888C321.016 144.888 320.292 145.342 319.911 146.25V153H318.285V143.49H319.867L319.894 144.589C320.427 143.739 321.183 143.314 322.161 143.314C322.478 143.314 322.718 143.355 322.882 143.438V144.949ZM327.654 150.618L329.869 143.49H331.609L327.786 154.468C327.194 156.05 326.254 156.841 324.965 156.841L324.657 156.814L324.051 156.7V155.382L324.49 155.417C325.041 155.417 325.469 155.306 325.773 155.083C326.084 154.86 326.339 154.453 326.538 153.861L326.898 152.895L323.506 143.49H325.281L327.654 150.618ZM337.788 153V140.203H341.972C343.36 140.203 344.403 140.49 345.101 141.064C345.804 141.639 346.155 142.488 346.155 143.613C346.155 144.211 345.985 144.741 345.646 145.204C345.306 145.661 344.843 146.016 344.257 146.268C344.948 146.461 345.493 146.83 345.892 147.375C346.296 147.914 346.498 148.559 346.498 149.309C346.498 150.457 346.126 151.359 345.382 152.016C344.638 152.672 343.586 153 342.227 153H337.788ZM339.476 147.015V151.62H342.262C343.047 151.62 343.665 151.418 344.116 151.014C344.573 150.604 344.802 150.041 344.802 149.326C344.802 147.785 343.964 147.015 342.288 147.015H339.476ZM339.476 145.661H342.024C342.763 145.661 343.352 145.477 343.791 145.107C344.236 144.738 344.459 144.237 344.459 143.604C344.459 142.901 344.254 142.392 343.844 142.075C343.434 141.753 342.81 141.592 341.972 141.592H339.476V145.661ZM348.317 148.157C348.317 147.226 348.499 146.388 348.862 145.644C349.231 144.899 349.741 144.325 350.392 143.921C351.048 143.517 351.795 143.314 352.633 143.314C353.928 143.314 354.974 143.763 355.771 144.659C356.573 145.556 356.975 146.748 356.975 148.236V148.351C356.975 149.276 356.796 150.108 356.438 150.847C356.087 151.579 355.58 152.15 354.918 152.561C354.262 152.971 353.506 153.176 352.65 153.176C351.361 153.176 350.315 152.728 349.513 151.831C348.716 150.935 348.317 149.748 348.317 148.271V148.157ZM349.952 148.351C349.952 149.405 350.195 150.252 350.682 150.891C351.174 151.529 351.83 151.849 352.65 151.849C353.477 151.849 354.133 151.526 354.619 150.882C355.105 150.231 355.349 149.323 355.349 148.157C355.349 147.114 355.1 146.271 354.602 145.626C354.109 144.976 353.453 144.65 352.633 144.65C351.83 144.65 351.183 144.97 350.69 145.608C350.198 146.247 349.952 147.161 349.952 148.351ZM364.885 153C364.791 152.812 364.715 152.479 364.656 151.998C363.9 152.783 362.998 153.176 361.949 153.176C361.012 153.176 360.241 152.912 359.638 152.385C359.04 151.852 358.741 151.178 358.741 150.363C358.741 149.373 359.116 148.605 359.866 148.061C360.622 147.51 361.683 147.234 363.048 147.234H364.63V146.487C364.63 145.919 364.46 145.468 364.12 145.134C363.78 144.794 363.279 144.624 362.617 144.624C362.037 144.624 361.551 144.771 361.158 145.063C360.766 145.356 360.569 145.711 360.569 146.127H358.935C358.935 145.652 359.102 145.195 359.436 144.756C359.775 144.311 360.232 143.959 360.807 143.701C361.387 143.443 362.022 143.314 362.714 143.314C363.81 143.314 364.668 143.59 365.289 144.141C365.91 144.686 366.232 145.438 366.256 146.399V150.776C366.256 151.649 366.367 152.344 366.59 152.859V153H364.885ZM362.187 151.761C362.696 151.761 363.18 151.629 363.637 151.365C364.094 151.102 364.425 150.759 364.63 150.337V148.386H363.355C361.363 148.386 360.367 148.969 360.367 150.135C360.367 150.645 360.537 151.043 360.877 151.33C361.217 151.617 361.653 151.761 362.187 151.761ZM373.401 144.949C373.155 144.908 372.889 144.888 372.602 144.888C371.535 144.888 370.812 145.342 370.431 146.25V153H368.805V143.49H370.387L370.413 144.589C370.946 143.739 371.702 143.314 372.681 143.314C372.997 143.314 373.237 143.355 373.401 143.438V144.949ZM374.333 148.166C374.333 146.707 374.679 145.535 375.37 144.65C376.062 143.76 376.967 143.314 378.086 143.314C379.199 143.314 380.081 143.695 380.731 144.457V139.5H382.357V153H380.863L380.784 151.98C380.134 152.777 379.229 153.176 378.068 153.176C376.967 153.176 376.067 152.725 375.37 151.822C374.679 150.92 374.333 149.742 374.333 148.289V148.166ZM375.959 148.351C375.959 149.429 376.182 150.272 376.627 150.882C377.072 151.491 377.688 151.796 378.473 151.796C379.504 151.796 380.257 151.333 380.731 150.407V146.039C380.245 145.143 379.498 144.694 378.49 144.694C377.693 144.694 377.072 145.002 376.627 145.617C376.182 146.232 375.959 147.144 375.959 148.351ZM389.292 147.806C389.292 146.481 389.468 145.21 389.819 143.991C390.177 142.772 390.707 141.665 391.41 140.669C392.113 139.673 392.843 138.97 393.599 138.56L393.933 139.632C393.077 140.288 392.374 141.29 391.823 142.638C391.278 143.985 390.979 145.494 390.927 147.164L390.918 147.911C390.918 150.173 391.331 152.136 392.157 153.8C392.655 154.796 393.247 155.575 393.933 156.138L393.599 157.131C392.819 156.697 392.075 155.971 391.366 154.951C389.983 152.959 389.292 150.577 389.292 147.806ZM402.827 149.66H397.466L396.262 153H394.521L399.408 140.203H400.885L405.78 153H404.049L402.827 149.66ZM397.976 148.271H402.326L400.146 142.286L397.976 148.271ZM407.503 153V140.203H411.687C413.075 140.203 414.118 140.49 414.815 141.064C415.519 141.639 415.87 142.488 415.87 143.613C415.87 144.211 415.7 144.741 415.36 145.204C415.021 145.661 414.558 146.016 413.972 146.268C414.663 146.461 415.208 146.83 415.606 147.375C416.011 147.914 416.213 148.559 416.213 149.309C416.213 150.457 415.841 151.359 415.097 152.016C414.353 152.672 413.301 153 411.941 153H407.503ZM409.19 147.015V151.62H411.977C412.762 151.62 413.38 151.418 413.831 151.014C414.288 150.604 414.517 150.041 414.517 149.326C414.517 147.785 413.679 147.015 412.003 147.015H409.19ZM409.19 145.661H411.739C412.478 145.661 413.066 145.477 413.506 145.107C413.951 144.738 414.174 144.237 414.174 143.604C414.174 142.901 413.969 142.392 413.559 142.075C413.148 141.753 412.524 141.592 411.687 141.592H409.19V145.661ZM422.216 147.894C422.216 149.2 422.043 150.454 421.697 151.655C421.357 152.851 420.833 153.955 420.124 154.969C419.421 155.982 418.683 156.703 417.909 157.131L417.566 156.138C418.469 155.446 419.192 154.374 419.737 152.921C420.288 151.462 420.569 149.845 420.581 148.069V147.788C420.581 146.558 420.452 145.415 420.194 144.36C419.937 143.3 419.576 142.351 419.113 141.513C418.656 140.675 418.141 140.021 417.566 139.553L417.909 138.56C418.683 138.987 419.418 139.702 420.115 140.704C420.818 141.706 421.343 142.811 421.688 144.018C422.04 145.225 422.216 146.517 422.216 147.894Z" fill="#363636"/>
<rect x="15.5" y="211.5" width="282" height="67" rx="3.5" fill="white" stroke="#900228"/>
<path d="M70.7021 249.321C70.2686 249.942 69.6621 250.408 68.8828 250.719C68.1094 251.023 67.207 251.176 66.1758 251.176C65.1328 251.176 64.207 250.933 63.3984 250.446C62.5898 249.954 61.9629 249.257 61.5176 248.354C61.0781 247.452 60.8525 246.406 60.8408 245.217V244.101C60.8408 242.173 61.2891 240.679 62.1855 239.618C63.0879 238.558 64.3535 238.027 65.9824 238.027C67.3184 238.027 68.3936 238.37 69.208 239.056C70.0225 239.735 70.5205 240.702 70.7021 241.956H69.0146C68.6982 240.263 67.6904 239.416 65.9912 239.416C64.8604 239.416 64.002 239.814 63.416 240.611C62.8359 241.402 62.543 242.551 62.5371 244.057V245.103C62.5371 246.538 62.8652 247.681 63.5215 248.53C64.1777 249.374 65.0654 249.796 66.1846 249.796C66.8174 249.796 67.3711 249.726 67.8457 249.585C68.3203 249.444 68.7129 249.207 69.0234 248.873V245.999H66.0615V244.628H70.7021V249.321ZM77.2148 251.176C75.9258 251.176 74.877 250.754 74.0684 249.91C73.2598 249.061 72.8555 247.927 72.8555 246.509V246.21C72.8555 245.267 73.0342 244.426 73.3916 243.688C73.7549 242.943 74.2588 242.363 74.9033 241.947C75.5537 241.525 76.2568 241.314 77.0127 241.314C78.249 241.314 79.21 241.722 79.8955 242.536C80.5811 243.351 80.9238 244.517 80.9238 246.034V246.711H74.4814C74.5049 247.648 74.7773 248.407 75.2988 248.987C75.8262 249.562 76.4941 249.849 77.3027 249.849C77.877 249.849 78.3633 249.731 78.7617 249.497C79.1602 249.263 79.5088 248.952 79.8076 248.565L80.8008 249.339C80.0039 250.563 78.8086 251.176 77.2148 251.176ZM77.0127 242.65C76.3564 242.65 75.8057 242.891 75.3604 243.371C74.915 243.846 74.6396 244.514 74.5342 245.375H79.2979V245.252C79.251 244.426 79.0283 243.787 78.6299 243.336C78.2314 242.879 77.6924 242.65 77.0127 242.65ZM84.3516 241.49L84.4043 242.686C85.1309 241.771 86.0801 241.314 87.252 241.314C89.2617 241.314 90.2754 242.448 90.293 244.716V251H88.667V244.707C88.6611 244.021 88.5029 243.515 88.1924 243.187C87.8877 242.858 87.4102 242.694 86.7598 242.694C86.2324 242.694 85.7695 242.835 85.3711 243.116C84.9727 243.397 84.6621 243.767 84.4395 244.224V251H82.8135V241.49H84.3516ZM96.6914 251.176C95.4023 251.176 94.3535 250.754 93.5449 249.91C92.7363 249.061 92.332 247.927 92.332 246.509V246.21C92.332 245.267 92.5107 244.426 92.8682 243.688C93.2314 242.943 93.7354 242.363 94.3799 241.947C95.0303 241.525 95.7334 241.314 96.4893 241.314C97.7256 241.314 98.6865 241.722 99.3721 242.536C100.058 243.351 100.4 244.517 100.4 246.034V246.711H93.958C93.9814 247.648 94.2539 248.407 94.7754 248.987C95.3027 249.562 95.9707 249.849 96.7793 249.849C97.3535 249.849 97.8398 249.731 98.2383 249.497C98.6367 249.263 98.9854 248.952 99.2842 248.565L100.277 249.339C99.4805 250.563 98.2852 251.176 96.6914 251.176ZM96.4893 242.65C95.833 242.65 95.2822 242.891 94.8369 243.371C94.3916 243.846 94.1162 244.514 94.0107 245.375H98.7744V245.252C98.7275 244.426 98.5049 243.787 98.1064 243.336C97.708 242.879 97.1689 242.65 96.4893 242.65ZM106.887 242.949C106.641 242.908 106.374 242.888 106.087 242.888C105.021 242.888 104.297 243.342 103.916 244.25V251H102.29V241.49H103.872L103.898 242.589C104.432 241.739 105.188 241.314 106.166 241.314C106.482 241.314 106.723 241.355 106.887 241.438V242.949ZM113.909 251C113.815 250.812 113.739 250.479 113.681 249.998C112.925 250.783 112.022 251.176 110.974 251.176C110.036 251.176 109.266 250.912 108.662 250.385C108.064 249.852 107.766 249.178 107.766 248.363C107.766 247.373 108.141 246.605 108.891 246.061C109.646 245.51 110.707 245.234 112.072 245.234H113.654V244.487C113.654 243.919 113.484 243.468 113.145 243.134C112.805 242.794 112.304 242.624 111.642 242.624C111.062 242.624 110.575 242.771 110.183 243.063C109.79 243.356 109.594 243.711 109.594 244.127H107.959C107.959 243.652 108.126 243.195 108.46 242.756C108.8 242.311 109.257 241.959 109.831 241.701C110.411 241.443 111.047 241.314 111.738 241.314C112.834 241.314 113.692 241.59 114.313 242.141C114.935 242.686 115.257 243.438 115.28 244.399V248.776C115.28 249.649 115.392 250.344 115.614 250.859V251H113.909ZM111.211 249.761C111.721 249.761 112.204 249.629 112.661 249.365C113.118 249.102 113.449 248.759 113.654 248.337V246.386H112.38C110.388 246.386 109.392 246.969 109.392 248.135C109.392 248.645 109.562 249.043 109.901 249.33C110.241 249.617 110.678 249.761 111.211 249.761ZM119.596 251H117.97V237.5H119.596V251ZM130.696 245.296C129.249 244.88 128.194 244.37 127.532 243.767C126.876 243.157 126.548 242.407 126.548 241.517C126.548 240.509 126.949 239.677 127.752 239.021C128.561 238.358 129.609 238.027 130.898 238.027C131.777 238.027 132.56 238.197 133.245 238.537C133.937 238.877 134.47 239.346 134.845 239.943C135.226 240.541 135.416 241.194 135.416 241.903H133.72C133.72 241.13 133.474 240.523 132.981 240.084C132.489 239.639 131.795 239.416 130.898 239.416C130.066 239.416 129.416 239.601 128.947 239.97C128.484 240.333 128.253 240.84 128.253 241.49C128.253 242.012 128.473 242.454 128.912 242.817C129.357 243.175 130.11 243.503 131.171 243.802C132.237 244.101 133.069 244.432 133.667 244.795C134.271 245.152 134.716 245.571 135.003 246.052C135.296 246.532 135.442 247.098 135.442 247.748C135.442 248.785 135.038 249.617 134.229 250.244C133.421 250.865 132.34 251.176 130.986 251.176C130.107 251.176 129.287 251.009 128.525 250.675C127.764 250.335 127.175 249.872 126.759 249.286C126.349 248.7 126.144 248.035 126.144 247.291H127.84C127.84 248.064 128.124 248.677 128.692 249.128C129.267 249.573 130.031 249.796 130.986 249.796C131.877 249.796 132.56 249.614 133.034 249.251C133.509 248.888 133.746 248.393 133.746 247.766C133.746 247.139 133.526 246.655 133.087 246.315C132.647 245.97 131.851 245.63 130.696 245.296ZM141.305 251.176C140.016 251.176 138.967 250.754 138.158 249.91C137.35 249.061 136.945 247.927 136.945 246.509V246.21C136.945 245.267 137.124 244.426 137.481 243.688C137.845 242.943 138.349 242.363 138.993 241.947C139.644 241.525 140.347 241.314 141.103 241.314C142.339 241.314 143.3 241.722 143.985 242.536C144.671 243.351 145.014 244.517 145.014 246.034V246.711H138.571C138.595 247.648 138.867 248.407 139.389 248.987C139.916 249.562 140.584 249.849 141.393 249.849C141.967 249.849 142.453 249.731 142.852 249.497C143.25 249.263 143.599 248.952 143.897 248.565L144.891 249.339C144.094 250.563 142.898 251.176 141.305 251.176ZM141.103 242.65C140.446 242.65 139.896 242.891 139.45 243.371C139.005 243.846 138.729 244.514 138.624 245.375H143.388V245.252C143.341 244.426 143.118 243.787 142.72 243.336C142.321 242.879 141.782 242.65 141.103 242.65ZM150.718 249.849C151.298 249.849 151.805 249.673 152.238 249.321C152.672 248.97 152.912 248.53 152.959 248.003H154.497C154.468 248.548 154.28 249.066 153.935 249.559C153.589 250.051 153.126 250.443 152.546 250.736C151.972 251.029 151.362 251.176 150.718 251.176C149.423 251.176 148.392 250.745 147.624 249.884C146.862 249.017 146.481 247.833 146.481 246.333V246.061C146.481 245.135 146.651 244.312 146.991 243.591C147.331 242.87 147.817 242.311 148.45 241.912C149.089 241.514 149.842 241.314 150.709 241.314C151.775 241.314 152.66 241.634 153.363 242.272C154.072 242.911 154.45 243.74 154.497 244.76H152.959C152.912 244.145 152.678 243.641 152.256 243.248C151.84 242.85 151.324 242.65 150.709 242.65C149.883 242.65 149.241 242.949 148.784 243.547C148.333 244.139 148.107 244.997 148.107 246.122V246.43C148.107 247.525 148.333 248.369 148.784 248.961C149.235 249.553 149.88 249.849 150.718 249.849ZM160.922 242.949C160.676 242.908 160.409 242.888 160.122 242.888C159.056 242.888 158.332 243.342 157.951 244.25V251H156.325V241.49H157.907L157.934 242.589C158.467 241.739 159.223 241.314 160.201 241.314C160.518 241.314 160.758 241.355 160.922 241.438V242.949ZM166.195 251.176C164.906 251.176 163.857 250.754 163.049 249.91C162.24 249.061 161.836 247.927 161.836 246.509V246.21C161.836 245.267 162.015 244.426 162.372 243.688C162.735 242.943 163.239 242.363 163.884 241.947C164.534 241.525 165.237 241.314 165.993 241.314C167.229 241.314 168.19 241.722 168.876 242.536C169.562 243.351 169.904 244.517 169.904 246.034V246.711H163.462C163.485 247.648 163.758 248.407 164.279 248.987C164.807 249.562 165.475 249.849 166.283 249.849C166.857 249.849 167.344 249.731 167.742 249.497C168.141 249.263 168.489 248.952 168.788 248.565L169.781 249.339C168.984 250.563 167.789 251.176 166.195 251.176ZM165.993 242.65C165.337 242.65 164.786 242.891 164.341 243.371C163.896 243.846 163.62 244.514 163.515 245.375H168.278V245.252C168.231 244.426 168.009 243.787 167.61 243.336C167.212 242.879 166.673 242.65 165.993 242.65ZM174 239.188V241.49H175.775V242.747H174V248.645C174 249.025 174.079 249.312 174.237 249.506C174.396 249.693 174.665 249.787 175.046 249.787C175.233 249.787 175.491 249.752 175.819 249.682V251C175.392 251.117 174.976 251.176 174.571 251.176C173.845 251.176 173.297 250.956 172.928 250.517C172.559 250.077 172.374 249.453 172.374 248.645V242.747H170.643V241.49H172.374V239.188H174ZM183.554 251C183.46 250.812 183.384 250.479 183.325 249.998C182.569 250.783 181.667 251.176 180.618 251.176C179.681 251.176 178.91 250.912 178.307 250.385C177.709 249.852 177.41 249.178 177.41 248.363C177.41 247.373 177.785 246.605 178.535 246.061C179.291 245.51 180.352 245.234 181.717 245.234H183.299V244.487C183.299 243.919 183.129 243.468 182.789 243.134C182.449 242.794 181.948 242.624 181.286 242.624C180.706 242.624 180.22 242.771 179.827 243.063C179.435 243.356 179.238 243.711 179.238 244.127H177.604C177.604 243.652 177.771 243.195 178.104 242.756C178.444 242.311 178.901 241.959 179.476 241.701C180.056 241.443 180.691 241.314 181.383 241.314C182.479 241.314 183.337 241.59 183.958 242.141C184.579 242.686 184.901 243.438 184.925 244.399V248.776C184.925 249.649 185.036 250.344 185.259 250.859V251H183.554ZM180.855 249.761C181.365 249.761 181.849 249.629 182.306 249.365C182.763 249.102 183.094 248.759 183.299 248.337V246.386H182.024C180.032 246.386 179.036 246.969 179.036 248.135C179.036 248.645 179.206 249.043 179.546 249.33C179.886 249.617 180.322 249.761 180.855 249.761ZM192.07 242.949C191.824 242.908 191.558 242.888 191.271 242.888C190.204 242.888 189.48 243.342 189.1 244.25V251H187.474V241.49H189.056L189.082 242.589C189.615 241.739 190.371 241.314 191.35 241.314C191.666 241.314 191.906 241.355 192.07 241.438V242.949ZM195.34 251H193.714V241.49H195.34V251ZM193.582 238.968C193.582 238.704 193.661 238.481 193.819 238.3C193.983 238.118 194.224 238.027 194.54 238.027C194.856 238.027 195.097 238.118 195.261 238.3C195.425 238.481 195.507 238.704 195.507 238.968C195.507 239.231 195.425 239.451 195.261 239.627C195.097 239.803 194.856 239.891 194.54 239.891C194.224 239.891 193.983 239.803 193.819 239.627C193.661 239.451 193.582 239.231 193.582 238.968ZM203.821 251C203.728 250.812 203.651 250.479 203.593 249.998C202.837 250.783 201.935 251.176 200.886 251.176C199.948 251.176 199.178 250.912 198.574 250.385C197.977 249.852 197.678 249.178 197.678 248.363C197.678 247.373 198.053 246.605 198.803 246.061C199.559 245.51 200.619 245.234 201.984 245.234H203.566V244.487C203.566 243.919 203.396 243.468 203.057 243.134C202.717 242.794 202.216 242.624 201.554 242.624C200.974 242.624 200.487 242.771 200.095 243.063C199.702 243.356 199.506 243.711 199.506 244.127H197.871C197.871 243.652 198.038 243.195 198.372 242.756C198.712 242.311 199.169 241.959 199.743 241.701C200.323 241.443 200.959 241.314 201.65 241.314C202.746 241.314 203.604 241.59 204.226 242.141C204.847 242.686 205.169 243.438 205.192 244.399V248.776C205.192 249.649 205.304 250.344 205.526 250.859V251H203.821ZM201.123 249.761C201.633 249.761 202.116 249.629 202.573 249.365C203.03 249.102 203.361 248.759 203.566 248.337V246.386H202.292C200.3 246.386 199.304 246.969 199.304 248.135C199.304 248.645 199.474 249.043 199.813 249.33C200.153 249.617 200.59 249.761 201.123 249.761ZM209.947 239.188V241.49H211.723V242.747H209.947V248.645C209.947 249.025 210.026 249.312 210.185 249.506C210.343 249.693 210.612 249.787 210.993 249.787C211.181 249.787 211.438 249.752 211.767 249.682V251C211.339 251.117 210.923 251.176 210.519 251.176C209.792 251.176 209.244 250.956 208.875 250.517C208.506 250.077 208.321 249.453 208.321 248.645V242.747H206.59V241.49H208.321V239.188H209.947ZM218.033 245.806C218.033 244.481 218.209 243.21 218.561 241.991C218.918 240.772 219.448 239.665 220.151 238.669C220.854 237.673 221.584 236.97 222.34 236.56L222.674 237.632C221.818 238.288 221.115 239.29 220.564 240.638C220.02 241.985 219.721 243.494 219.668 245.164L219.659 245.911C219.659 248.173 220.072 250.136 220.898 251.8C221.396 252.796 221.988 253.575 222.674 254.138L222.34 255.131C221.561 254.697 220.816 253.971 220.107 252.951C218.725 250.959 218.033 248.577 218.033 245.806ZM233.95 249.321C233.517 249.942 232.91 250.408 232.131 250.719C231.357 251.023 230.455 251.176 229.424 251.176C228.381 251.176 227.455 250.933 226.646 250.446C225.838 249.954 225.211 249.257 224.766 248.354C224.326 247.452 224.101 246.406 224.089 245.217V244.101C224.089 242.173 224.537 240.679 225.434 239.618C226.336 238.558 227.602 238.027 229.23 238.027C230.566 238.027 231.642 238.37 232.456 239.056C233.271 239.735 233.769 240.702 233.95 241.956H232.263C231.946 240.263 230.938 239.416 229.239 239.416C228.108 239.416 227.25 239.814 226.664 240.611C226.084 241.402 225.791 242.551 225.785 244.057V245.103C225.785 246.538 226.113 247.681 226.77 248.53C227.426 249.374 228.313 249.796 229.433 249.796C230.065 249.796 230.619 249.726 231.094 249.585C231.568 249.444 231.961 249.207 232.271 248.873V245.999H229.31V244.628H233.95V249.321ZM240.542 245.296C239.095 244.88 238.04 244.37 237.378 243.767C236.722 243.157 236.394 242.407 236.394 241.517C236.394 240.509 236.795 239.677 237.598 239.021C238.406 238.358 239.455 238.027 240.744 238.027C241.623 238.027 242.405 238.197 243.091 238.537C243.782 238.877 244.315 239.346 244.69 239.943C245.071 240.541 245.262 241.194 245.262 241.903H243.565C243.565 241.13 243.319 240.523 242.827 240.084C242.335 239.639 241.641 239.416 240.744 239.416C239.912 239.416 239.262 239.601 238.793 239.97C238.33 240.333 238.099 240.84 238.099 241.49C238.099 242.012 238.318 242.454 238.758 242.817C239.203 243.175 239.956 243.503 241.017 243.802C242.083 244.101 242.915 244.432 243.513 244.795C244.116 245.152 244.562 245.571 244.849 246.052C245.142 246.532 245.288 247.098 245.288 247.748C245.288 248.785 244.884 249.617 244.075 250.244C243.267 250.865 242.186 251.176 240.832 251.176C239.953 251.176 239.133 251.009 238.371 250.675C237.609 250.335 237.021 249.872 236.604 249.286C236.194 248.7 235.989 248.035 235.989 247.291H237.686C237.686 248.064 237.97 248.677 238.538 249.128C239.112 249.573 239.877 249.796 240.832 249.796C241.723 249.796 242.405 249.614 242.88 249.251C243.354 248.888 243.592 248.393 243.592 247.766C243.592 247.139 243.372 246.655 242.933 246.315C242.493 245.97 241.696 245.63 240.542 245.296ZM250.957 245.894C250.957 247.2 250.784 248.454 250.438 249.655C250.099 250.851 249.574 251.955 248.865 252.969C248.162 253.982 247.424 254.703 246.65 255.131L246.308 254.138C247.21 253.446 247.934 252.374 248.479 250.921C249.029 249.462 249.311 247.845 249.322 246.069V245.788C249.322 244.558 249.193 243.415 248.936 242.36C248.678 241.3 248.317 240.351 247.854 239.513C247.397 238.675 246.882 238.021 246.308 237.553L246.65 236.56C247.424 236.987 248.159 237.702 248.856 238.704C249.56 239.706 250.084 240.811 250.43 242.018C250.781 243.225 250.957 244.517 250.957 245.894Z" fill="#363636"/>
<rect x="15.5" y="309.5" width="282" height="67" rx="3.5" fill="white" stroke="#900228"/>
<path d="M69.6738 343.015C69.6738 344.269 69.4629 345.364 69.041 346.302C68.6191 347.233 68.0215 347.945 67.248 348.438C66.4746 348.93 65.5723 349.176 64.541 349.176C63.5332 349.176 62.6396 348.93 61.8604 348.438C61.0811 347.939 60.4746 347.233 60.041 346.319C59.6133 345.399 59.3936 344.336 59.3818 343.129V342.206C59.3818 340.976 59.5957 339.889 60.0234 338.945C60.4512 338.002 61.0547 337.281 61.834 336.783C62.6191 336.279 63.5156 336.027 64.5234 336.027C65.5488 336.027 66.4512 336.276 67.2305 336.774C68.0156 337.267 68.6191 337.984 69.041 338.928C69.4629 339.865 69.6738 340.958 69.6738 342.206V343.015ZM67.9951 342.188C67.9951 340.671 67.6904 339.508 67.0811 338.699C66.4717 337.885 65.6191 337.478 64.5234 337.478C63.457 337.478 62.6162 337.885 62.001 338.699C61.3916 339.508 61.0781 340.633 61.0605 342.074V343.015C61.0605 344.485 61.3682 345.643 61.9834 346.486C62.6045 347.324 63.457 347.743 64.541 347.743C65.6309 347.743 66.4746 347.348 67.0723 346.557C67.6699 345.76 67.9775 344.62 67.9951 343.138V342.188ZM76.5469 340.949C76.3008 340.908 76.0342 340.888 75.7471 340.888C74.6807 340.888 73.957 341.342 73.5762 342.25V349H71.9502V339.49H73.5322L73.5586 340.589C74.0918 339.739 74.8477 339.314 75.8262 339.314C76.1426 339.314 76.3828 339.355 76.5469 339.438V340.949ZM77.4873 344.166C77.4873 342.684 77.8301 341.506 78.5156 340.633C79.2012 339.754 80.1094 339.314 81.2402 339.314C82.4004 339.314 83.3057 339.725 83.9561 340.545L84.0352 339.49H85.5205V348.771C85.5205 350.002 85.1543 350.972 84.4219 351.681C83.6953 352.39 82.7168 352.744 81.4863 352.744C80.8008 352.744 80.1299 352.598 79.4736 352.305C78.8174 352.012 78.3164 351.61 77.9707 351.101L78.8145 350.125C79.5117 350.986 80.3643 351.417 81.3721 351.417C82.1631 351.417 82.7783 351.194 83.2178 350.749C83.6631 350.304 83.8857 349.677 83.8857 348.868V348.051C83.2354 348.801 82.3477 349.176 81.2227 349.176C80.1094 349.176 79.207 348.728 78.5156 347.831C77.8301 346.935 77.4873 345.713 77.4873 344.166ZM79.1221 344.351C79.1221 345.423 79.3418 346.267 79.7812 346.882C80.2207 347.491 80.8359 347.796 81.627 347.796C82.6523 347.796 83.4053 347.33 83.8857 346.398V342.057C83.3877 341.148 82.6406 340.694 81.6445 340.694C80.8535 340.694 80.2354 341.002 79.79 341.617C79.3447 342.232 79.1221 343.144 79.1221 344.351ZM93.8525 349C93.7588 348.812 93.6826 348.479 93.624 347.998C92.8682 348.783 91.9658 349.176 90.917 349.176C89.9795 349.176 89.209 348.912 88.6055 348.385C88.0078 347.852 87.709 347.178 87.709 346.363C87.709 345.373 88.084 344.605 88.834 344.061C89.5898 343.51 90.6504 343.234 92.0156 343.234H93.5977V342.487C93.5977 341.919 93.4277 341.468 93.0879 341.134C92.748 340.794 92.2471 340.624 91.585 340.624C91.0049 340.624 90.5186 340.771 90.126 341.063C89.7334 341.356 89.5371 341.711 89.5371 342.127H87.9023C87.9023 341.652 88.0693 341.195 88.4033 340.756C88.7432 340.311 89.2002 339.959 89.7744 339.701C90.3545 339.443 90.9902 339.314 91.6816 339.314C92.7773 339.314 93.6357 339.59 94.2568 340.141C94.8779 340.686 95.2002 341.438 95.2236 342.399V346.776C95.2236 347.649 95.335 348.344 95.5576 348.859V349H93.8525ZM91.1543 347.761C91.6641 347.761 92.1475 347.629 92.6045 347.365C93.0615 347.102 93.3926 346.759 93.5977 346.337V344.386H92.3232C90.3311 344.386 89.335 344.969 89.335 346.135C89.335 346.645 89.5049 347.043 89.8447 347.33C90.1846 347.617 90.6211 347.761 91.1543 347.761ZM99.3105 339.49L99.3633 340.686C100.09 339.771 101.039 339.314 102.211 339.314C104.221 339.314 105.234 340.448 105.252 342.716V349H103.626V342.707C103.62 342.021 103.462 341.515 103.151 341.187C102.847 340.858 102.369 340.694 101.719 340.694C101.191 340.694 100.729 340.835 100.33 341.116C99.9316 341.397 99.6211 341.767 99.3984 342.224V349H97.7725V339.49H99.3105ZM109.471 349H107.845V339.49H109.471V349ZM107.713 336.968C107.713 336.704 107.792 336.481 107.95 336.3C108.114 336.118 108.354 336.027 108.671 336.027C108.987 336.027 109.228 336.118 109.392 336.3C109.556 336.481 109.638 336.704 109.638 336.968C109.638 337.231 109.556 337.451 109.392 337.627C109.228 337.803 108.987 337.891 108.671 337.891C108.354 337.891 108.114 337.803 107.95 337.627C107.792 337.451 107.713 337.231 107.713 336.968ZM117.618 346.478C117.618 346.038 117.451 345.698 117.117 345.458C116.789 345.212 116.212 345.001 115.386 344.825C114.565 344.649 113.912 344.438 113.426 344.192C112.945 343.946 112.588 343.653 112.354 343.313C112.125 342.974 112.011 342.569 112.011 342.101C112.011 341.321 112.339 340.662 112.995 340.123C113.657 339.584 114.501 339.314 115.526 339.314C116.604 339.314 117.478 339.593 118.146 340.149C118.819 340.706 119.156 341.418 119.156 342.285H117.521C117.521 341.84 117.331 341.456 116.95 341.134C116.575 340.812 116.101 340.65 115.526 340.65C114.935 340.65 114.472 340.779 114.138 341.037C113.804 341.295 113.637 341.632 113.637 342.048C113.637 342.44 113.792 342.736 114.103 342.936C114.413 343.135 114.973 343.325 115.781 343.507C116.596 343.688 117.255 343.905 117.759 344.157C118.263 344.409 118.635 344.714 118.875 345.071C119.121 345.423 119.244 345.854 119.244 346.363C119.244 347.213 118.904 347.896 118.225 348.411C117.545 348.921 116.663 349.176 115.579 349.176C114.817 349.176 114.144 349.041 113.558 348.771C112.972 348.502 112.512 348.127 112.178 347.646C111.85 347.16 111.686 346.636 111.686 346.073H113.312C113.341 346.618 113.558 347.052 113.962 347.374C114.372 347.69 114.911 347.849 115.579 347.849C116.194 347.849 116.687 347.726 117.056 347.479C117.431 347.228 117.618 346.894 117.618 346.478ZM127.233 349C127.14 348.812 127.063 348.479 127.005 347.998C126.249 348.783 125.347 349.176 124.298 349.176C123.36 349.176 122.59 348.912 121.986 348.385C121.389 347.852 121.09 347.178 121.09 346.363C121.09 345.373 121.465 344.605 122.215 344.061C122.971 343.51 124.031 343.234 125.396 343.234H126.979V342.487C126.979 341.919 126.809 341.468 126.469 341.134C126.129 340.794 125.628 340.624 124.966 340.624C124.386 340.624 123.899 340.771 123.507 341.063C123.114 341.356 122.918 341.711 122.918 342.127H121.283C121.283 341.652 121.45 341.195 121.784 340.756C122.124 340.311 122.581 339.959 123.155 339.701C123.735 339.443 124.371 339.314 125.062 339.314C126.158 339.314 127.017 339.59 127.638 340.141C128.259 340.686 128.581 341.438 128.604 342.399V346.776C128.604 347.649 128.716 348.344 128.938 348.859V349H127.233ZM124.535 347.761C125.045 347.761 125.528 347.629 125.985 347.365C126.442 347.102 126.773 346.759 126.979 346.337V344.386H125.704C123.712 344.386 122.716 344.969 122.716 346.135C122.716 346.645 122.886 347.043 123.226 347.33C123.565 347.617 124.002 347.761 124.535 347.761ZM133.359 337.188V339.49H135.135V340.747H133.359V346.645C133.359 347.025 133.438 347.312 133.597 347.506C133.755 347.693 134.024 347.787 134.405 347.787C134.593 347.787 134.851 347.752 135.179 347.682V349C134.751 349.117 134.335 349.176 133.931 349.176C133.204 349.176 132.656 348.956 132.287 348.517C131.918 348.077 131.733 347.453 131.733 346.645V340.747H130.002V339.49H131.733V337.188H133.359ZM138.809 349H137.183V339.49H138.809V349ZM137.051 336.968C137.051 336.704 137.13 336.481 137.288 336.3C137.452 336.118 137.692 336.027 138.009 336.027C138.325 336.027 138.565 336.118 138.729 336.3C138.894 336.481 138.976 336.704 138.976 336.968C138.976 337.231 138.894 337.451 138.729 337.627C138.565 337.803 138.325 337.891 138.009 337.891C137.692 337.891 137.452 337.803 137.288 337.627C137.13 337.451 137.051 337.231 137.051 336.968ZM140.988 344.157C140.988 343.226 141.17 342.388 141.533 341.644C141.902 340.899 142.412 340.325 143.062 339.921C143.719 339.517 144.466 339.314 145.304 339.314C146.599 339.314 147.645 339.763 148.441 340.659C149.244 341.556 149.646 342.748 149.646 344.236V344.351C149.646 345.276 149.467 346.108 149.109 346.847C148.758 347.579 148.251 348.15 147.589 348.561C146.933 348.971 146.177 349.176 145.321 349.176C144.032 349.176 142.986 348.728 142.184 347.831C141.387 346.935 140.988 345.748 140.988 344.271V344.157ZM142.623 344.351C142.623 345.405 142.866 346.252 143.353 346.891C143.845 347.529 144.501 347.849 145.321 347.849C146.147 347.849 146.804 347.526 147.29 346.882C147.776 346.231 148.02 345.323 148.02 344.157C148.02 343.114 147.771 342.271 147.272 341.626C146.78 340.976 146.124 340.65 145.304 340.65C144.501 340.65 143.854 340.97 143.361 341.608C142.869 342.247 142.623 343.161 142.623 344.351ZM153.223 339.49L153.275 340.686C154.002 339.771 154.951 339.314 156.123 339.314C158.133 339.314 159.146 340.448 159.164 342.716V349H157.538V342.707C157.532 342.021 157.374 341.515 157.063 341.187C156.759 340.858 156.281 340.694 155.631 340.694C155.104 340.694 154.641 340.835 154.242 341.116C153.844 341.397 153.533 341.767 153.311 342.224V349H151.685V339.49H153.223ZM175.749 344.939C175.591 346.293 175.09 347.339 174.246 348.077C173.408 348.81 172.292 349.176 170.897 349.176C169.386 349.176 168.173 348.634 167.259 347.55C166.351 346.466 165.896 345.016 165.896 343.199V341.969C165.896 340.779 166.107 339.733 166.529 338.831C166.957 337.929 167.561 337.237 168.34 336.757C169.119 336.271 170.021 336.027 171.047 336.027C172.406 336.027 173.496 336.408 174.316 337.17C175.137 337.926 175.614 338.975 175.749 340.316H174.053C173.906 339.297 173.587 338.559 173.095 338.102C172.608 337.645 171.926 337.416 171.047 337.416C169.969 337.416 169.122 337.814 168.507 338.611C167.897 339.408 167.593 340.542 167.593 342.013V343.252C167.593 344.641 167.883 345.745 168.463 346.565C169.043 347.386 169.854 347.796 170.897 347.796C171.835 347.796 172.553 347.585 173.051 347.163C173.555 346.735 173.889 345.994 174.053 344.939H175.749ZM177.375 344.157C177.375 343.226 177.557 342.388 177.92 341.644C178.289 340.899 178.799 340.325 179.449 339.921C180.105 339.517 180.853 339.314 181.69 339.314C182.985 339.314 184.031 339.763 184.828 340.659C185.631 341.556 186.032 342.748 186.032 344.236V344.351C186.032 345.276 185.854 346.108 185.496 346.847C185.145 347.579 184.638 348.15 183.976 348.561C183.319 348.971 182.563 349.176 181.708 349.176C180.419 349.176 179.373 348.728 178.57 347.831C177.773 346.935 177.375 345.748 177.375 344.271V344.157ZM179.01 344.351C179.01 345.405 179.253 346.252 179.739 346.891C180.231 347.529 180.888 347.849 181.708 347.849C182.534 347.849 183.19 347.526 183.677 346.882C184.163 346.231 184.406 345.323 184.406 344.157C184.406 343.114 184.157 342.271 183.659 341.626C183.167 340.976 182.511 340.65 181.69 340.65C180.888 340.65 180.24 340.97 179.748 341.608C179.256 342.247 179.01 343.161 179.01 344.351ZM189.601 339.49L189.645 340.545C190.342 339.725 191.282 339.314 192.466 339.314C193.796 339.314 194.701 339.824 195.182 340.844C195.498 340.387 195.908 340.018 196.412 339.736C196.922 339.455 197.522 339.314 198.214 339.314C200.3 339.314 201.36 340.419 201.396 342.628V349H199.77V342.725C199.77 342.045 199.614 341.538 199.304 341.204C198.993 340.864 198.472 340.694 197.739 340.694C197.136 340.694 196.635 340.876 196.236 341.239C195.838 341.597 195.606 342.08 195.542 342.689V349H193.907V342.769C193.907 341.386 193.23 340.694 191.877 340.694C190.811 340.694 190.081 341.148 189.688 342.057V349H188.062V339.49H189.601ZM205.386 339.49L205.43 340.545C206.127 339.725 207.067 339.314 208.251 339.314C209.581 339.314 210.486 339.824 210.967 340.844C211.283 340.387 211.693 340.018 212.197 339.736C212.707 339.455 213.308 339.314 213.999 339.314C216.085 339.314 217.146 340.419 217.181 342.628V349H215.555V342.725C215.555 342.045 215.399 341.538 215.089 341.204C214.778 340.864 214.257 340.694 213.524 340.694C212.921 340.694 212.42 340.876 212.021 341.239C211.623 341.597 211.392 342.08 211.327 342.689V349H209.692V342.769C209.692 341.386 209.016 340.694 207.662 340.694C206.596 340.694 205.866 341.148 205.474 342.057V349H203.848V339.49H205.386ZM221.408 349H219.782V339.49H221.408V349ZM219.65 336.968C219.65 336.704 219.729 336.481 219.888 336.3C220.052 336.118 220.292 336.027 220.608 336.027C220.925 336.027 221.165 336.118 221.329 336.3C221.493 336.481 221.575 336.704 221.575 336.968C221.575 337.231 221.493 337.451 221.329 337.627C221.165 337.803 220.925 337.891 220.608 337.891C220.292 337.891 220.052 337.803 219.888 337.627C219.729 337.451 219.65 337.231 219.65 336.968ZM226.225 337.188V339.49H228V340.747H226.225V346.645C226.225 347.025 226.304 347.312 226.462 347.506C226.62 347.693 226.89 347.787 227.271 347.787C227.458 347.787 227.716 347.752 228.044 347.682V349C227.616 349.117 227.2 349.176 226.796 349.176C226.069 349.176 225.521 348.956 225.152 348.517C224.783 348.077 224.599 347.453 224.599 346.645V340.747H222.867V339.49H224.599V337.188H226.225ZM232.113 337.188V339.49H233.889V340.747H232.113V346.645C232.113 347.025 232.192 347.312 232.351 347.506C232.509 347.693 232.778 347.787 233.159 347.787C233.347 347.787 233.604 347.752 233.933 347.682V349C233.505 349.117 233.089 349.176 232.685 349.176C231.958 349.176 231.41 348.956 231.041 348.517C230.672 348.077 230.487 347.453 230.487 346.645V340.747H228.756V339.49H230.487V337.188H232.113ZM239.742 349.176C238.453 349.176 237.404 348.754 236.596 347.91C235.787 347.061 235.383 345.927 235.383 344.509V344.21C235.383 343.267 235.562 342.426 235.919 341.688C236.282 340.943 236.786 340.363 237.431 339.947C238.081 339.525 238.784 339.314 239.54 339.314C240.776 339.314 241.737 339.722 242.423 340.536C243.108 341.351 243.451 342.517 243.451 344.034V344.711H237.009C237.032 345.648 237.305 346.407 237.826 346.987C238.354 347.562 239.021 347.849 239.83 347.849C240.404 347.849 240.891 347.731 241.289 347.497C241.688 347.263 242.036 346.952 242.335 346.565L243.328 347.339C242.531 348.563 241.336 349.176 239.742 349.176ZM239.54 340.65C238.884 340.65 238.333 340.891 237.888 341.371C237.442 341.846 237.167 342.514 237.062 343.375H241.825V343.252C241.778 342.426 241.556 341.787 241.157 341.336C240.759 340.879 240.22 340.65 239.54 340.65ZM249.287 349.176C247.998 349.176 246.949 348.754 246.141 347.91C245.332 347.061 244.928 345.927 244.928 344.509V344.21C244.928 343.267 245.106 342.426 245.464 341.688C245.827 340.943 246.331 340.363 246.976 339.947C247.626 339.525 248.329 339.314 249.085 339.314C250.321 339.314 251.282 339.722 251.968 340.536C252.653 341.351 252.996 342.517 252.996 344.034V344.711H246.554C246.577 345.648 246.85 346.407 247.371 346.987C247.898 347.562 248.566 347.849 249.375 347.849C249.949 347.849 250.436 347.731 250.834 347.497C251.232 347.263 251.581 346.952 251.88 346.565L252.873 347.339C252.076 348.563 250.881 349.176 249.287 349.176ZM249.085 340.65C248.429 340.65 247.878 340.891 247.433 341.371C246.987 341.846 246.712 342.514 246.606 343.375H251.37V343.252C251.323 342.426 251.101 341.787 250.702 341.336C250.304 340.879 249.765 340.65 249.085 340.65Z" fill="#363636"/>
<line x1="157" y1="83" x2="157" y2="211" stroke="#900228" stroke-width="2"/>
<line x1="157" y1="279" x2="157" y2="309" stroke="#900228" stroke-width="2"/>
<line x1="202" y1="148" x2="156" y2="148" stroke="#900228" stroke-width="2"/>
</svg>
