<svg width="500" height="392" viewBox="0 0 500 392" fill="none" xmlns="http://www.w3.org/2000/svg">
<rect x="15.5" y="15.5" width="282" height="67" rx="3.5" fill="white" stroke="#900228"/>
<path d="M66.1055 42.2031H67.793V55H66.1055V45.1387L59.8037 55H58.1074V42.2031H59.8037V52.0645L66.1055 42.2031ZM74.4287 53.8486C75.0088 53.8486 75.5156 53.6729 75.9492 53.3213C76.3828 52.9697 76.623 52.5303 76.6699 52.0029H78.208C78.1787 52.5479 77.9912 53.0664 77.6455 53.5586C77.2998 54.0508 76.8369 54.4434 76.2568 54.7363C75.6826 55.0293 75.0732 55.1758 74.4287 55.1758C73.1338 55.1758 72.1025 54.7451 71.335 53.8838C70.5732 53.0166 70.1924 51.833 70.1924 50.333V50.0605C70.1924 49.1348 70.3623 48.3115 70.7021 47.5908C71.042 46.8701 71.5283 46.3105 72.1611 45.9121C72.7998 45.5137 73.5527 45.3145 74.4199 45.3145C75.4863 45.3145 76.3711 45.6338 77.0742 46.2725C77.7832 46.9111 78.1611 47.7402 78.208 48.7598H76.6699C76.623 48.1445 76.3887 47.6406 75.9668 47.248C75.5508 46.8496 75.0352 46.6504 74.4199 46.6504C73.5938 46.6504 72.9521 46.9492 72.4951 47.5469C72.0439 48.1387 71.8184 48.9971 71.8184 50.1221V50.4297C71.8184 51.5254 72.0439 52.3691 72.4951 52.9609C72.9463 53.5527 73.5908 53.8486 74.4287 53.8486ZM87.8145 55H86.1885V46.835H81.8115V55H80.1768V45.4902H87.8145V55ZM89.9941 50.1572C89.9941 49.2256 90.1758 48.3877 90.5391 47.6436C90.9082 46.8994 91.418 46.3252 92.0684 45.9209C92.7246 45.5166 93.4717 45.3145 94.3096 45.3145C95.6045 45.3145 96.6504 45.7627 97.4473 46.6592C98.25 47.5557 98.6514 48.748 98.6514 50.2363V50.3506C98.6514 51.2764 98.4727 52.1084 98.1152 52.8467C97.7637 53.5791 97.2568 54.1504 96.5947 54.5605C95.9385 54.9707 95.1826 55.1758 94.3271 55.1758C93.0381 55.1758 91.9922 54.7275 91.1895 53.8311C90.3926 52.9346 89.9941 51.748 89.9941 50.2715V50.1572ZM91.6289 50.3506C91.6289 51.4053 91.8721 52.252 92.3584 52.8906C92.8506 53.5293 93.5068 53.8486 94.3271 53.8486C95.1533 53.8486 95.8096 53.5264 96.2959 52.8818C96.7822 52.2314 97.0254 51.3232 97.0254 50.1572C97.0254 49.1143 96.7764 48.2705 96.2783 47.626C95.7861 46.9756 95.1299 46.6504 94.3096 46.6504C93.5068 46.6504 92.8594 46.9697 92.3672 47.6084C91.875 48.2471 91.6289 49.1611 91.6289 50.3506ZM108.346 45.4902V55H106.711V46.835H103.477L103.283 50.3945C103.178 52.0293 102.902 53.1982 102.457 53.9014C102.018 54.6045 101.317 54.9707 100.356 55H99.7061V53.5674L100.172 53.5322C100.699 53.4736 101.077 53.1689 101.306 52.6182C101.534 52.0674 101.681 51.0479 101.745 49.5596L101.921 45.4902H108.346ZM118.726 55H117.1V50.9395H112.731V55H111.097V45.4902H112.731V49.6123H117.1V45.4902H118.726V55ZM127.497 45.4902H129.123V55H127.497V48.0654L123.111 55H121.485V45.4902H123.111V52.4336L127.497 45.4902ZM138.8 46.8086H135.609V55H133.983V46.8086H130.854V45.4902H138.8V46.8086ZM143.625 55.1758C142.336 55.1758 141.287 54.7539 140.479 53.9102C139.67 53.0605 139.266 51.9268 139.266 50.5088V50.21C139.266 49.2666 139.444 48.4258 139.802 47.6875C140.165 46.9434 140.669 46.3633 141.313 45.9473C141.964 45.5254 142.667 45.3145 143.423 45.3145C144.659 45.3145 145.62 45.7217 146.306 46.5361C146.991 47.3506 147.334 48.5166 147.334 50.0342V50.7109H140.892C140.915 51.6484 141.188 52.4072 141.709 52.9873C142.236 53.5615 142.904 53.8486 143.713 53.8486C144.287 53.8486 144.773 53.7314 145.172 53.4971C145.57 53.2627 145.919 52.9521 146.218 52.5654L147.211 53.3389C146.414 54.5635 145.219 55.1758 143.625 55.1758ZM143.423 46.6504C142.767 46.6504 142.216 46.8906 141.771 47.3711C141.325 47.8457 141.05 48.5137 140.944 49.375H145.708V49.252C145.661 48.4258 145.438 47.7871 145.04 47.3359C144.642 46.8789 144.103 46.6504 143.423 46.6504ZM157.02 45.4902V55H155.385V46.835H152.15L151.957 50.3945C151.852 52.0293 151.576 53.1982 151.131 53.9014C150.691 54.6045 149.991 54.9707 149.03 55H148.38V53.5674L148.846 53.5322C149.373 53.4736 149.751 53.1689 149.979 52.6182C150.208 52.0674 150.354 51.0479 150.419 49.5596L150.595 45.4902H157.02ZM161.405 48.7686H163.875C164.953 48.7803 165.806 49.0615 166.433 49.6123C167.06 50.1631 167.373 50.9102 167.373 51.8535C167.373 52.8027 167.051 53.5645 166.406 54.1387C165.762 54.7129 164.895 55 163.805 55H159.779V45.4902H161.405V48.7686ZM161.405 50.0957V53.6729H163.822C164.432 53.6729 164.903 53.5176 165.237 53.207C165.571 52.8906 165.738 52.46 165.738 51.915C165.738 51.3877 165.574 50.957 165.246 50.623C164.924 50.2832 164.47 50.1074 163.884 50.0957H161.405ZM177.173 55H175.547V50.9395H171.179V55H169.544V45.4902H171.179V49.6123H175.547V45.4902H177.173V55ZM181.567 48.7686H184.037C185.115 48.7803 185.968 49.0615 186.595 49.6123C187.222 50.1631 187.535 50.9102 187.535 51.8535C187.535 52.8027 187.213 53.5645 186.568 54.1387C185.924 54.7129 185.057 55 183.967 55H179.941V45.4902H181.567V48.7686ZM190.928 55H189.293V45.4902H190.928V55ZM181.567 50.0957V53.6729H183.984C184.594 53.6729 185.065 53.5176 185.399 53.207C185.733 52.8906 185.9 52.46 185.9 51.915C185.9 51.3877 185.736 50.957 185.408 50.623C185.086 50.2832 184.632 50.1074 184.046 50.0957H181.567ZM199.919 45.4902H201.545V55H199.919V48.0654L195.533 55H193.907V45.4902H195.533V52.4336L199.919 45.4902ZM200.358 42.0273C200.358 42.7363 200.115 43.3076 199.629 43.7412C199.148 44.1689 198.516 44.3828 197.73 44.3828C196.945 44.3828 196.31 44.166 195.823 43.7324C195.337 43.2988 195.094 42.7305 195.094 42.0273H196.421C196.421 42.4375 196.532 42.7598 196.755 42.9941C196.978 43.2227 197.303 43.3369 197.73 43.3369C198.141 43.3369 198.46 43.2227 198.688 42.9941C198.923 42.7656 199.04 42.4434 199.04 42.0273H200.358ZM212.435 53.8486C213.015 53.8486 213.521 53.6729 213.955 53.3213C214.389 52.9697 214.629 52.5303 214.676 52.0029H216.214C216.185 52.5479 215.997 53.0664 215.651 53.5586C215.306 54.0508 214.843 54.4434 214.263 54.7363C213.688 55.0293 213.079 55.1758 212.435 55.1758C211.14 55.1758 210.108 54.7451 209.341 53.8838C208.579 53.0166 208.198 51.833 208.198 50.333V50.0605C208.198 49.1348 208.368 48.3115 208.708 47.5908C209.048 46.8701 209.534 46.3105 210.167 45.9121C210.806 45.5137 211.559 45.3145 212.426 45.3145C213.492 45.3145 214.377 45.6338 215.08 46.2725C215.789 46.9111 216.167 47.7402 216.214 48.7598H214.676C214.629 48.1445 214.395 47.6406 213.973 47.248C213.557 46.8496 213.041 46.6504 212.426 46.6504C211.6 46.6504 210.958 46.9492 210.501 47.5469C210.05 48.1387 209.824 48.9971 209.824 50.1221V50.4297C209.824 51.5254 210.05 52.3691 210.501 52.9609C210.952 53.5527 211.597 53.8486 212.435 53.8486ZM217.611 50.1572C217.611 49.2256 217.793 48.3877 218.156 47.6436C218.525 46.8994 219.035 46.3252 219.686 45.9209C220.342 45.5166 221.089 45.3145 221.927 45.3145C223.222 45.3145 224.268 45.7627 225.064 46.6592C225.867 47.5557 226.269 48.748 226.269 50.2363V50.3506C226.269 51.2764 226.09 52.1084 225.732 52.8467C225.381 53.5791 224.874 54.1504 224.212 54.5605C223.556 54.9707 222.8 55.1758 221.944 55.1758C220.655 55.1758 219.609 54.7275 218.807 53.8311C218.01 52.9346 217.611 51.748 217.611 50.2715V50.1572ZM219.246 50.3506C219.246 51.4053 219.489 52.252 219.976 52.8906C220.468 53.5293 221.124 53.8486 221.944 53.8486C222.771 53.8486 223.427 53.5264 223.913 52.8818C224.399 52.2314 224.643 51.3232 224.643 50.1572C224.643 49.1143 224.394 48.2705 223.896 47.626C223.403 46.9756 222.747 46.6504 221.927 46.6504C221.124 46.6504 220.477 46.9697 219.984 47.6084C219.492 48.2471 219.246 49.1611 219.246 50.3506ZM228.457 55V45.4902H232.166C233.432 45.4902 234.401 45.7129 235.075 46.1582C235.755 46.5977 236.095 47.2451 236.095 48.1006C236.095 48.54 235.963 48.9385 235.699 49.2959C235.436 49.6475 235.046 49.917 234.53 50.1045C235.104 50.2393 235.564 50.5029 235.91 50.8955C236.262 51.2881 236.438 51.7568 236.438 52.3018C236.438 53.1748 236.115 53.8428 235.471 54.3057C234.832 54.7686 233.927 55 232.755 55H228.457ZM230.083 50.8252V53.6904H232.772C233.452 53.6904 233.959 53.5645 234.293 53.3125C234.633 53.0605 234.803 52.7061 234.803 52.249C234.803 51.2998 234.105 50.8252 232.711 50.8252H230.083ZM230.083 49.5244H232.184C233.707 49.5244 234.469 49.0791 234.469 48.1885C234.469 47.2979 233.748 46.8379 232.307 46.8086H230.083V49.5244ZM242.537 55.1758C241.248 55.1758 240.199 54.7539 239.391 53.9102C238.582 53.0605 238.178 51.9268 238.178 50.5088V50.21C238.178 49.2666 238.356 48.4258 238.714 47.6875C239.077 46.9434 239.581 46.3633 240.226 45.9473C240.876 45.5254 241.579 45.3145 242.335 45.3145C243.571 45.3145 244.532 45.7217 245.218 46.5361C245.903 47.3506 246.246 48.5166 246.246 50.0342V50.7109H239.804C239.827 51.6484 240.1 52.4072 240.621 52.9873C241.148 53.5615 241.816 53.8486 242.625 53.8486C243.199 53.8486 243.686 53.7314 244.084 53.4971C244.482 53.2627 244.831 52.9521 245.13 52.5654L246.123 53.3389C245.326 54.5635 244.131 55.1758 242.537 55.1758ZM242.335 46.6504C241.679 46.6504 241.128 46.8906 240.683 47.3711C240.237 47.8457 239.962 48.5137 239.856 49.375H244.62V49.252C244.573 48.4258 244.351 47.7871 243.952 47.3359C243.554 46.8789 243.015 46.6504 242.335 46.6504ZM255.097 46.8086H251.906V55H250.28V46.8086H247.151V45.4902H255.097V46.8086Z" fill="#363636"/>
<rect x="202.5" y="113.5" width="282" height="67" rx="3.5" fill="white" stroke="#900228"/>
<path d="M245.872 147.252H244.316V153H242.629V140.203H244.316V145.846H245.635L250.108 140.203H252.209L247.322 146.408L252.569 153H250.504L245.872 147.252ZM253.185 148.157C253.185 147.226 253.366 146.388 253.729 145.644C254.099 144.899 254.608 144.325 255.259 143.921C255.915 143.517 256.662 143.314 257.5 143.314C258.795 143.314 259.841 143.763 260.638 144.659C261.44 145.556 261.842 146.748 261.842 148.236V148.351C261.842 149.276 261.663 150.108 261.306 150.847C260.954 151.579 260.447 152.15 259.785 152.561C259.129 152.971 258.373 153.176 257.518 153.176C256.229 153.176 255.183 152.728 254.38 151.831C253.583 150.935 253.185 149.748 253.185 148.271V148.157ZM254.819 148.351C254.819 149.405 255.062 150.252 255.549 150.891C256.041 151.529 256.697 151.849 257.518 151.849C258.344 151.849 259 151.526 259.486 150.882C259.973 150.231 260.216 149.323 260.216 148.157C260.216 147.114 259.967 146.271 259.469 145.626C258.977 144.976 258.32 144.65 257.5 144.65C256.697 144.65 256.05 144.97 255.558 145.608C255.065 146.247 254.819 147.161 254.819 148.351ZM271.65 153H270.024V148.939H265.656V153H264.021V143.49H265.656V147.612H270.024V143.49H271.65V153ZM278.084 151.849C278.664 151.849 279.171 151.673 279.604 151.321C280.038 150.97 280.278 150.53 280.325 150.003H281.863C281.834 150.548 281.646 151.066 281.301 151.559C280.955 152.051 280.492 152.443 279.912 152.736C279.338 153.029 278.729 153.176 278.084 153.176C276.789 153.176 275.758 152.745 274.99 151.884C274.229 151.017 273.848 149.833 273.848 148.333V148.061C273.848 147.135 274.018 146.312 274.357 145.591C274.697 144.87 275.184 144.311 275.816 143.912C276.455 143.514 277.208 143.314 278.075 143.314C279.142 143.314 280.026 143.634 280.729 144.272C281.438 144.911 281.816 145.74 281.863 146.76H280.325C280.278 146.145 280.044 145.641 279.622 145.248C279.206 144.85 278.69 144.65 278.075 144.65C277.249 144.65 276.607 144.949 276.15 145.547C275.699 146.139 275.474 146.997 275.474 148.122V148.43C275.474 149.525 275.699 150.369 276.15 150.961C276.602 151.553 277.246 151.849 278.084 151.849ZM286.803 150.618L289.018 143.49H290.758L286.935 154.468C286.343 156.05 285.402 156.841 284.113 156.841L283.806 156.814L283.199 156.7V155.382L283.639 155.417C284.189 155.417 284.617 155.306 284.922 155.083C285.232 154.86 285.487 154.453 285.687 153.861L286.047 152.895L282.654 143.49H284.43L286.803 150.618ZM299.644 143.49V153H298.009V144.835H294.774L294.581 148.395C294.476 150.029 294.2 151.198 293.755 151.901C293.315 152.604 292.615 152.971 291.654 153H291.004V151.567L291.47 151.532C291.997 151.474 292.375 151.169 292.604 150.618C292.832 150.067 292.979 149.048 293.043 147.56L293.219 143.49H299.644ZM304.029 146.769H306.499C307.577 146.78 308.43 147.062 309.057 147.612C309.684 148.163 309.997 148.91 309.997 149.854C309.997 150.803 309.675 151.564 309.03 152.139C308.386 152.713 307.519 153 306.429 153H302.403V143.49H304.029V146.769ZM304.029 148.096V151.673H306.446C307.056 151.673 307.527 151.518 307.861 151.207C308.195 150.891 308.362 150.46 308.362 149.915C308.362 149.388 308.198 148.957 307.87 148.623C307.548 148.283 307.094 148.107 306.508 148.096H304.029ZM318.479 144.809H315.288V153H313.662V144.809H310.533V143.49H318.479V144.809ZM325.791 153C325.697 152.812 325.621 152.479 325.562 151.998C324.807 152.783 323.904 153.176 322.855 153.176C321.918 153.176 321.147 152.912 320.544 152.385C319.946 151.852 319.647 151.178 319.647 150.363C319.647 149.373 320.022 148.605 320.772 148.061C321.528 147.51 322.589 147.234 323.954 147.234H325.536V146.487C325.536 145.919 325.366 145.468 325.026 145.134C324.687 144.794 324.186 144.624 323.523 144.624C322.943 144.624 322.457 144.771 322.064 145.063C321.672 145.356 321.476 145.711 321.476 146.127H319.841C319.841 145.652 320.008 145.195 320.342 144.756C320.682 144.311 321.139 143.959 321.713 143.701C322.293 143.443 322.929 143.314 323.62 143.314C324.716 143.314 325.574 143.59 326.195 144.141C326.816 144.686 327.139 145.438 327.162 146.399V150.776C327.162 151.649 327.273 152.344 327.496 152.859V153H325.791ZM323.093 151.761C323.603 151.761 324.086 151.629 324.543 151.365C325 151.102 325.331 150.759 325.536 150.337V148.386H324.262C322.27 148.386 321.273 148.969 321.273 150.135C321.273 150.645 321.443 151.043 321.783 151.33C322.123 151.617 322.56 151.761 323.093 151.761ZM336.637 144.809H333.446V153H331.82V144.809H328.691V143.49H336.637V144.809ZM344.371 143.49H345.997V153H344.371V146.065L339.985 153H338.359V143.49H339.985V150.434L344.371 143.49ZM348.757 153V143.49H352.466C353.731 143.49 354.701 143.713 355.375 144.158C356.055 144.598 356.395 145.245 356.395 146.101C356.395 146.54 356.263 146.938 355.999 147.296C355.735 147.647 355.346 147.917 354.83 148.104C355.404 148.239 355.864 148.503 356.21 148.896C356.562 149.288 356.737 149.757 356.737 150.302C356.737 151.175 356.415 151.843 355.771 152.306C355.132 152.769 354.227 153 353.055 153H348.757ZM350.383 148.825V151.69H353.072C353.752 151.69 354.259 151.564 354.593 151.312C354.933 151.061 355.103 150.706 355.103 150.249C355.103 149.3 354.405 148.825 353.011 148.825H350.383ZM350.383 147.524H352.483C354.007 147.524 354.769 147.079 354.769 146.188C354.769 145.298 354.048 144.838 352.606 144.809H350.383V147.524ZM366.66 153H365.034V148.939H360.666V153H359.031V143.49H360.666V147.612H365.034V143.49H366.66V153ZM371.055 146.769H373.524C374.603 146.78 375.455 147.062 376.082 147.612C376.709 148.163 377.022 148.91 377.022 149.854C377.022 150.803 376.7 151.564 376.056 152.139C375.411 152.713 374.544 153 373.454 153H369.429V143.49H371.055V146.769ZM380.415 153H378.78V143.49H380.415V153ZM371.055 148.096V151.673H373.472C374.081 151.673 374.553 151.518 374.887 151.207C375.221 150.891 375.388 150.46 375.388 149.915C375.388 149.388 375.224 148.957 374.896 148.623C374.573 148.283 374.119 148.107 373.533 148.096H371.055ZM389.406 143.49H391.032V153H389.406V146.065L385.021 153H383.395V143.49H385.021V150.434L389.406 143.49ZM389.846 140.027C389.846 140.736 389.603 141.308 389.116 141.741C388.636 142.169 388.003 142.383 387.218 142.383C386.433 142.383 385.797 142.166 385.311 141.732C384.824 141.299 384.581 140.73 384.581 140.027H385.908C385.908 140.438 386.02 140.76 386.242 140.994C386.465 141.223 386.79 141.337 387.218 141.337C387.628 141.337 387.947 141.223 388.176 140.994C388.41 140.766 388.527 140.443 388.527 140.027H389.846ZM401.922 151.849C402.502 151.849 403.009 151.673 403.442 151.321C403.876 150.97 404.116 150.53 404.163 150.003H405.701C405.672 150.548 405.484 151.066 405.139 151.559C404.793 152.051 404.33 152.443 403.75 152.736C403.176 153.029 402.566 153.176 401.922 153.176C400.627 153.176 399.596 152.745 398.828 151.884C398.066 151.017 397.686 149.833 397.686 148.333V148.061C397.686 147.135 397.855 146.312 398.195 145.591C398.535 144.87 399.021 144.311 399.654 143.912C400.293 143.514 401.046 143.314 401.913 143.314C402.979 143.314 403.864 143.634 404.567 144.272C405.276 144.911 405.654 145.74 405.701 146.76H404.163C404.116 146.145 403.882 145.641 403.46 145.248C403.044 144.85 402.528 144.65 401.913 144.65C401.087 144.65 400.445 144.949 399.988 145.547C399.537 146.139 399.312 146.997 399.312 148.122V148.43C399.312 149.525 399.537 150.369 399.988 150.961C400.439 151.553 401.084 151.849 401.922 151.849ZM407.099 148.157C407.099 147.226 407.28 146.388 407.644 145.644C408.013 144.899 408.522 144.325 409.173 143.921C409.829 143.517 410.576 143.314 411.414 143.314C412.709 143.314 413.755 143.763 414.552 144.659C415.354 145.556 415.756 146.748 415.756 148.236V148.351C415.756 149.276 415.577 150.108 415.22 150.847C414.868 151.579 414.361 152.15 413.699 152.561C413.043 152.971 412.287 153.176 411.432 153.176C410.143 153.176 409.097 152.728 408.294 151.831C407.497 150.935 407.099 149.748 407.099 148.271V148.157ZM408.733 148.351C408.733 149.405 408.977 150.252 409.463 150.891C409.955 151.529 410.611 151.849 411.432 151.849C412.258 151.849 412.914 151.526 413.4 150.882C413.887 150.231 414.13 149.323 414.13 148.157C414.13 147.114 413.881 146.271 413.383 145.626C412.891 144.976 412.234 144.65 411.414 144.65C410.611 144.65 409.964 144.97 409.472 145.608C408.979 146.247 408.733 147.161 408.733 148.351ZM417.944 153V143.49H421.653C422.919 143.49 423.889 143.713 424.562 144.158C425.242 144.598 425.582 145.245 425.582 146.101C425.582 146.54 425.45 146.938 425.187 147.296C424.923 147.647 424.533 147.917 424.018 148.104C424.592 148.239 425.052 148.503 425.397 148.896C425.749 149.288 425.925 149.757 425.925 150.302C425.925 151.175 425.603 151.843 424.958 152.306C424.319 152.769 423.414 153 422.242 153H417.944ZM419.57 148.825V151.69H422.26C422.939 151.69 423.446 151.564 423.78 151.312C424.12 151.061 424.29 150.706 424.29 150.249C424.29 149.3 423.593 148.825 422.198 148.825H419.57ZM419.57 147.524H421.671C423.194 147.524 423.956 147.079 423.956 146.188C423.956 145.298 423.235 144.838 421.794 144.809H419.57V147.524ZM432.024 153.176C430.735 153.176 429.687 152.754 428.878 151.91C428.069 151.061 427.665 149.927 427.665 148.509V148.21C427.665 147.267 427.844 146.426 428.201 145.688C428.564 144.943 429.068 144.363 429.713 143.947C430.363 143.525 431.066 143.314 431.822 143.314C433.059 143.314 434.02 143.722 434.705 144.536C435.391 145.351 435.733 146.517 435.733 148.034V148.711H429.291C429.314 149.648 429.587 150.407 430.108 150.987C430.636 151.562 431.304 151.849 432.112 151.849C432.687 151.849 433.173 151.731 433.571 151.497C433.97 151.263 434.318 150.952 434.617 150.565L435.61 151.339C434.813 152.563 433.618 153.176 432.024 153.176ZM431.822 144.65C431.166 144.65 430.615 144.891 430.17 145.371C429.725 145.846 429.449 146.514 429.344 147.375H434.107V147.252C434.061 146.426 433.838 145.787 433.439 145.336C433.041 144.879 432.502 144.65 431.822 144.65ZM444.584 144.809H441.394V153H439.768V144.809H436.639V143.49H444.584V144.809Z" fill="#363636"/>
<rect x="15.5" y="211.5" width="282" height="67" rx="3.5" fill="white" stroke="#900228"/>
<path d="M54.1875 239.592H48.0176V251H46.3213V238.203H54.1875V239.592ZM58.3096 251.176C57.0205 251.176 55.9717 250.754 55.1631 249.91C54.3545 249.061 53.9502 247.927 53.9502 246.509V246.21C53.9502 245.267 54.1289 244.426 54.4863 243.688C54.8496 242.943 55.3535 242.363 55.998 241.947C56.6484 241.525 57.3516 241.314 58.1074 241.314C59.3438 241.314 60.3047 241.722 60.9902 242.536C61.6758 243.351 62.0186 244.517 62.0186 246.034V246.711H55.5762C55.5996 247.648 55.8721 248.407 56.3936 248.987C56.9209 249.562 57.5889 249.849 58.3975 249.849C58.9717 249.849 59.458 249.731 59.8564 249.497C60.2549 249.263 60.6035 248.952 60.9023 248.565L61.8955 249.339C61.0986 250.563 59.9033 251.176 58.3096 251.176ZM58.1074 242.65C57.4512 242.65 56.9004 242.891 56.4551 243.371C56.0098 243.846 55.7344 244.514 55.6289 245.375H60.3926V245.252C60.3457 244.426 60.123 243.787 59.7246 243.336C59.3262 242.879 58.7871 242.65 58.1074 242.65ZM71.6777 251H70.0518V246.939H65.6836V251H64.0488V241.49H65.6836V245.612H70.0518V241.49H71.6777V251ZM78.2432 251.176C76.9541 251.176 75.9053 250.754 75.0967 249.91C74.2881 249.061 73.8838 247.927 73.8838 246.509V246.21C73.8838 245.267 74.0625 244.426 74.4199 243.688C74.7832 242.943 75.2871 242.363 75.9316 241.947C76.582 241.525 77.2852 241.314 78.041 241.314C79.2773 241.314 80.2383 241.722 80.9238 242.536C81.6094 243.351 81.9521 244.517 81.9521 246.034V246.711H75.5098C75.5332 247.648 75.8057 248.407 76.3271 248.987C76.8545 249.562 77.5225 249.849 78.3311 249.849C78.9053 249.849 79.3916 249.731 79.79 249.497C80.1885 249.263 80.5371 248.952 80.8359 248.565L81.8291 249.339C81.0322 250.563 79.8369 251.176 78.2432 251.176ZM78.041 242.65C77.3848 242.65 76.834 242.891 76.3887 243.371C75.9434 243.846 75.668 244.514 75.5625 245.375H80.3262V245.252C80.2793 244.426 80.0566 243.787 79.6582 243.336C79.2598 242.879 78.7207 242.65 78.041 242.65ZM91.875 246.351C91.875 247.798 91.5439 248.964 90.8818 249.849C90.2197 250.733 89.3232 251.176 88.1924 251.176C87.0381 251.176 86.1299 250.81 85.4678 250.077V254.656H83.8418V241.49H85.3271L85.4062 242.545C86.0684 241.725 86.9883 241.314 88.166 241.314C89.3086 241.314 90.2109 241.745 90.873 242.606C91.541 243.468 91.875 244.666 91.875 246.201V246.351ZM90.249 246.166C90.249 245.094 90.0205 244.247 89.5635 243.626C89.1064 243.005 88.4795 242.694 87.6826 242.694C86.6982 242.694 85.96 243.131 85.4678 244.004V248.548C85.9541 249.415 86.6982 249.849 87.7002 249.849C88.4795 249.849 89.0977 249.541 89.5547 248.926C90.0176 248.305 90.249 247.385 90.249 246.166ZM99.8203 251C99.7266 250.812 99.6504 250.479 99.5918 249.998C98.8359 250.783 97.9336 251.176 96.8848 251.176C95.9473 251.176 95.1768 250.912 94.5732 250.385C93.9756 249.852 93.6768 249.178 93.6768 248.363C93.6768 247.373 94.0518 246.605 94.8018 246.061C95.5576 245.51 96.6182 245.234 97.9834 245.234H99.5654V244.487C99.5654 243.919 99.3955 243.468 99.0557 243.134C98.7158 242.794 98.2148 242.624 97.5527 242.624C96.9727 242.624 96.4863 242.771 96.0938 243.063C95.7012 243.356 95.5049 243.711 95.5049 244.127H93.8701C93.8701 243.652 94.0371 243.195 94.3711 242.756C94.7109 242.311 95.168 241.959 95.7422 241.701C96.3223 241.443 96.958 241.314 97.6494 241.314C98.7451 241.314 99.6035 241.59 100.225 242.141C100.846 242.686 101.168 243.438 101.191 244.399V248.776C101.191 249.649 101.303 250.344 101.525 250.859V251H99.8203ZM97.1221 249.761C97.6318 249.761 98.1152 249.629 98.5723 249.365C99.0293 249.102 99.3604 248.759 99.5654 248.337V246.386H98.291C96.2988 246.386 95.3027 246.969 95.3027 248.135C95.3027 248.645 95.4727 249.043 95.8125 249.33C96.1523 249.617 96.5889 249.761 97.1221 249.761ZM111.536 241.49V251H109.901V242.835H106.667L106.474 246.395C106.368 248.029 106.093 249.198 105.647 249.901C105.208 250.604 104.508 250.971 103.547 251H102.896V249.567L103.362 249.532C103.89 249.474 104.268 249.169 104.496 248.618C104.725 248.067 104.871 247.048 104.936 245.56L105.111 241.49H111.536ZM115.922 244.769H118.392C119.47 244.78 120.322 245.062 120.949 245.612C121.576 246.163 121.89 246.91 121.89 247.854C121.89 248.803 121.567 249.564 120.923 250.139C120.278 250.713 119.411 251 118.321 251H114.296V241.49H115.922V244.769ZM115.922 246.096V249.673H118.339C118.948 249.673 119.42 249.518 119.754 249.207C120.088 248.891 120.255 248.46 120.255 247.915C120.255 247.388 120.091 246.957 119.763 246.623C119.44 246.283 118.986 246.107 118.4 246.096H115.922ZM131.689 251H130.063V246.939H125.695V251H124.061V241.49H125.695V245.612H130.063V241.49H131.689V251ZM136.084 244.769H138.554C139.632 244.78 140.484 245.062 141.111 245.612C141.738 246.163 142.052 246.91 142.052 247.854C142.052 248.803 141.729 249.564 141.085 250.139C140.44 250.713 139.573 251 138.483 251H134.458V241.49H136.084V244.769ZM145.444 251H143.81V241.49H145.444V251ZM136.084 246.096V249.673H138.501C139.11 249.673 139.582 249.518 139.916 249.207C140.25 248.891 140.417 248.46 140.417 247.915C140.417 247.388 140.253 246.957 139.925 246.623C139.603 246.283 139.148 246.107 138.562 246.096H136.084ZM154.436 241.49H156.062V251H154.436V244.065L150.05 251H148.424V241.49H150.05V248.434L154.436 241.49ZM154.875 238.027C154.875 238.736 154.632 239.308 154.146 239.741C153.665 240.169 153.032 240.383 152.247 240.383C151.462 240.383 150.826 240.166 150.34 239.732C149.854 239.299 149.61 238.73 149.61 238.027H150.938C150.938 238.438 151.049 238.76 151.271 238.994C151.494 239.223 151.819 239.337 152.247 239.337C152.657 239.337 152.977 239.223 153.205 238.994C153.439 238.766 153.557 238.443 153.557 238.027H154.875ZM166.951 249.849C167.531 249.849 168.038 249.673 168.472 249.321C168.905 248.97 169.146 248.53 169.192 248.003H170.73C170.701 248.548 170.514 249.066 170.168 249.559C169.822 250.051 169.359 250.443 168.779 250.736C168.205 251.029 167.596 251.176 166.951 251.176C165.656 251.176 164.625 250.745 163.857 249.884C163.096 249.017 162.715 247.833 162.715 246.333V246.061C162.715 245.135 162.885 244.312 163.225 243.591C163.564 242.87 164.051 242.311 164.684 241.912C165.322 241.514 166.075 241.314 166.942 241.314C168.009 241.314 168.894 241.634 169.597 242.272C170.306 242.911 170.684 243.74 170.73 244.76H169.192C169.146 244.145 168.911 243.641 168.489 243.248C168.073 242.85 167.558 242.65 166.942 242.65C166.116 242.65 165.475 242.949 165.018 243.547C164.566 244.139 164.341 244.997 164.341 246.122V246.43C164.341 247.525 164.566 248.369 165.018 248.961C165.469 249.553 166.113 249.849 166.951 249.849ZM176.505 251.176C175.216 251.176 174.167 250.754 173.358 249.91C172.55 249.061 172.146 247.927 172.146 246.509V246.21C172.146 245.267 172.324 244.426 172.682 243.688C173.045 242.943 173.549 242.363 174.193 241.947C174.844 241.525 175.547 241.314 176.303 241.314C177.539 241.314 178.5 241.722 179.186 242.536C179.871 243.351 180.214 244.517 180.214 246.034V246.711H173.771C173.795 247.648 174.067 248.407 174.589 248.987C175.116 249.562 175.784 249.849 176.593 249.849C177.167 249.849 177.653 249.731 178.052 249.497C178.45 249.263 178.799 248.952 179.098 248.565L180.091 249.339C179.294 250.563 178.099 251.176 176.505 251.176ZM176.303 242.65C175.646 242.65 175.096 242.891 174.65 243.371C174.205 243.846 173.93 244.514 173.824 245.375H178.588V245.252C178.541 244.426 178.318 243.787 177.92 243.336C177.521 242.879 176.982 242.65 176.303 242.65ZM185.065 246.948H183.879V251H182.244V241.49H183.879V245.516H184.942L188.142 241.49H190.11L186.349 246.061L190.427 251H188.361L185.065 246.948ZM199.857 246.351C199.857 247.798 199.526 248.964 198.864 249.849C198.202 250.733 197.306 251.176 196.175 251.176C195.021 251.176 194.112 250.81 193.45 250.077V254.656H191.824V241.49H193.31L193.389 242.545C194.051 241.725 194.971 241.314 196.148 241.314C197.291 241.314 198.193 241.745 198.855 242.606C199.523 243.468 199.857 244.666 199.857 246.201V246.351ZM198.231 246.166C198.231 245.094 198.003 244.247 197.546 243.626C197.089 243.005 196.462 242.694 195.665 242.694C194.681 242.694 193.942 243.131 193.45 244.004V248.548C193.937 249.415 194.681 249.849 195.683 249.849C196.462 249.849 197.08 249.541 197.537 248.926C198 248.305 198.231 247.385 198.231 246.166ZM205.878 251.176C204.589 251.176 203.54 250.754 202.731 249.91C201.923 249.061 201.519 247.927 201.519 246.509V246.21C201.519 245.267 201.697 244.426 202.055 243.688C202.418 242.943 202.922 242.363 203.566 241.947C204.217 241.525 204.92 241.314 205.676 241.314C206.912 241.314 207.873 241.722 208.559 242.536C209.244 243.351 209.587 244.517 209.587 246.034V246.711H203.145C203.168 247.648 203.44 248.407 203.962 248.987C204.489 249.562 205.157 249.849 205.966 249.849C206.54 249.849 207.026 249.731 207.425 249.497C207.823 249.263 208.172 248.952 208.471 248.565L209.464 249.339C208.667 250.563 207.472 251.176 205.878 251.176ZM205.676 242.65C205.02 242.65 204.469 242.891 204.023 243.371C203.578 243.846 203.303 244.514 203.197 245.375H207.961V245.252C207.914 244.426 207.691 243.787 207.293 243.336C206.895 242.879 206.355 242.65 205.676 242.65ZM218.438 242.809H215.247V251H213.621V242.809H210.492V241.49H218.438V242.809ZM225.75 251C225.656 250.812 225.58 250.479 225.521 249.998C224.766 250.783 223.863 251.176 222.814 251.176C221.877 251.176 221.106 250.912 220.503 250.385C219.905 249.852 219.606 249.178 219.606 248.363C219.606 247.373 219.981 246.605 220.731 246.061C221.487 245.51 222.548 245.234 223.913 245.234H225.495V244.487C225.495 243.919 225.325 243.468 224.985 243.134C224.646 242.794 224.145 242.624 223.482 242.624C222.902 242.624 222.416 242.771 222.023 243.063C221.631 243.356 221.435 243.711 221.435 244.127H219.8C219.8 243.652 219.967 243.195 220.301 242.756C220.641 242.311 221.098 241.959 221.672 241.701C222.252 241.443 222.888 241.314 223.579 241.314C224.675 241.314 225.533 241.59 226.154 242.141C226.775 242.686 227.098 243.438 227.121 244.399V248.776C227.121 249.649 227.232 250.344 227.455 250.859V251H225.75ZM223.052 249.761C223.562 249.761 224.045 249.629 224.502 249.365C224.959 249.102 225.29 248.759 225.495 248.337V246.386H224.221C222.229 246.386 221.232 246.969 221.232 248.135C221.232 248.645 221.402 249.043 221.742 249.33C222.082 249.617 222.519 249.761 223.052 249.761ZM237.703 246.351C237.703 247.798 237.372 248.964 236.71 249.849C236.048 250.733 235.151 251.176 234.021 251.176C232.866 251.176 231.958 250.81 231.296 250.077V254.656H229.67V241.49H231.155L231.234 242.545C231.896 241.725 232.816 241.314 233.994 241.314C235.137 241.314 236.039 241.745 236.701 242.606C237.369 243.468 237.703 244.666 237.703 246.201V246.351ZM236.077 246.166C236.077 245.094 235.849 244.247 235.392 243.626C234.935 243.005 234.308 242.694 233.511 242.694C232.526 242.694 231.788 243.131 231.296 244.004V248.548C231.782 249.415 232.526 249.849 233.528 249.849C234.308 249.849 234.926 249.541 235.383 248.926C235.846 248.305 236.077 247.385 236.077 246.166ZM245.93 241.49H247.556V251H245.93V244.065L241.544 251H239.918V241.49H241.544V248.434L245.93 241.49ZM256.037 251C255.943 250.812 255.867 250.479 255.809 249.998C255.053 250.783 254.15 251.176 253.102 251.176C252.164 251.176 251.394 250.912 250.79 250.385C250.192 249.852 249.894 249.178 249.894 248.363C249.894 247.373 250.269 246.605 251.019 246.061C251.774 245.51 252.835 245.234 254.2 245.234H255.782V244.487C255.782 243.919 255.612 243.468 255.272 243.134C254.933 242.794 254.432 242.624 253.77 242.624C253.189 242.624 252.703 242.771 252.311 243.063C251.918 243.356 251.722 243.711 251.722 244.127H250.087C250.087 243.652 250.254 243.195 250.588 242.756C250.928 242.311 251.385 241.959 251.959 241.701C252.539 241.443 253.175 241.314 253.866 241.314C254.962 241.314 255.82 241.59 256.441 242.141C257.062 242.686 257.385 243.438 257.408 244.399V248.776C257.408 249.649 257.52 250.344 257.742 250.859V251H256.037ZM253.339 249.761C253.849 249.761 254.332 249.629 254.789 249.365C255.246 249.102 255.577 248.759 255.782 248.337V246.386H254.508C252.516 246.386 251.52 246.969 251.52 248.135C251.52 248.645 251.689 249.043 252.029 249.33C252.369 249.617 252.806 249.761 253.339 249.761ZM266.883 242.809H263.692V251H262.066V242.809H258.938V241.49H266.883V242.809Z" fill="#363636"/>
<rect x="15.5" y="309.5" width="282" height="67" rx="3.5" fill="white" stroke="#900228"/>
<path d="M52.3066 343.015C52.3066 344.269 52.0957 345.364 51.6738 346.302C51.252 347.233 50.6543 347.945 49.8809 348.438C49.1074 348.93 48.2051 349.176 47.1738 349.176C46.166 349.176 45.2725 348.93 44.4932 348.438C43.7139 347.939 43.1074 347.233 42.6738 346.319C42.2461 345.399 42.0264 344.336 42.0146 343.129V342.206C42.0146 340.976 42.2285 339.889 42.6562 338.945C43.084 338.002 43.6875 337.281 44.4668 336.783C45.252 336.279 46.1484 336.027 47.1562 336.027C48.1816 336.027 49.084 336.276 49.8633 336.774C50.6484 337.267 51.252 337.984 51.6738 338.928C52.0957 339.865 52.3066 340.958 52.3066 342.206V343.015ZM50.6279 342.188C50.6279 340.671 50.3232 339.508 49.7139 338.699C49.1045 337.885 48.252 337.478 47.1562 337.478C46.0898 337.478 45.249 337.885 44.6338 338.699C44.0244 339.508 43.7109 340.633 43.6934 342.074V343.015C43.6934 344.485 44.001 345.643 44.6162 346.486C45.2373 347.324 46.0898 347.743 47.1738 347.743C48.2637 347.743 49.1074 347.348 49.7051 346.557C50.3027 345.76 50.6104 344.62 50.6279 343.138V342.188ZM62.6162 344.351C62.6162 345.798 62.2852 346.964 61.623 347.849C60.9609 348.733 60.0645 349.176 58.9336 349.176C57.7793 349.176 56.8711 348.81 56.209 348.077V352.656H54.583V339.49H56.0684L56.1475 340.545C56.8096 339.725 57.7295 339.314 58.9072 339.314C60.0498 339.314 60.9521 339.745 61.6143 340.606C62.2822 341.468 62.6162 342.666 62.6162 344.201V344.351ZM60.9902 344.166C60.9902 343.094 60.7617 342.247 60.3047 341.626C59.8477 341.005 59.2207 340.694 58.4238 340.694C57.4395 340.694 56.7012 341.131 56.209 342.004V346.548C56.6953 347.415 57.4395 347.849 58.4414 347.849C59.2207 347.849 59.8389 347.541 60.2959 346.926C60.7588 346.305 60.9902 345.385 60.9902 344.166ZM70.834 340.835H66.4482V349H64.8135V339.49H70.834V340.835ZM78.1201 349C78.0264 348.812 77.9502 348.479 77.8916 347.998C77.1357 348.783 76.2334 349.176 75.1846 349.176C74.2471 349.176 73.4766 348.912 72.873 348.385C72.2754 347.852 71.9766 347.178 71.9766 346.363C71.9766 345.373 72.3516 344.605 73.1016 344.061C73.8574 343.51 74.918 343.234 76.2832 343.234H77.8652V342.487C77.8652 341.919 77.6953 341.468 77.3555 341.134C77.0156 340.794 76.5146 340.624 75.8525 340.624C75.2725 340.624 74.7861 340.771 74.3936 341.063C74.001 341.356 73.8047 341.711 73.8047 342.127H72.1699C72.1699 341.652 72.3369 341.195 72.6709 340.756C73.0107 340.311 73.4678 339.959 74.042 339.701C74.6221 339.443 75.2578 339.314 75.9492 339.314C77.0449 339.314 77.9033 339.59 78.5244 340.141C79.1455 340.686 79.4678 341.438 79.4912 342.399V346.776C79.4912 347.649 79.6025 348.344 79.8252 348.859V349H78.1201ZM75.4219 347.761C75.9316 347.761 76.415 347.629 76.8721 347.365C77.3291 347.102 77.6602 346.759 77.8652 346.337V344.386H76.5908C74.5986 344.386 73.6025 344.969 73.6025 346.135C73.6025 346.645 73.7725 347.043 74.1123 347.33C74.4521 347.617 74.8887 347.761 75.4219 347.761ZM89.8096 349H88.1836V344.939H83.8154V349H82.1807V339.49H83.8154V343.612H88.1836V339.49H89.8096V349ZM98.5811 339.49H100.207V349H98.5811V342.065L94.1953 349H92.5693V339.49H94.1953V346.434L98.5811 339.49ZM108.047 342.092C108.047 341.646 107.877 341.295 107.537 341.037C107.197 340.773 106.731 340.642 106.14 340.642C105.565 340.642 105.085 340.791 104.698 341.09C104.317 341.389 104.127 341.74 104.127 342.145H102.51C102.51 341.318 102.855 340.642 103.547 340.114C104.238 339.587 105.103 339.323 106.14 339.323C107.253 339.323 108.12 339.563 108.741 340.044C109.362 340.519 109.673 341.198 109.673 342.083C109.673 342.511 109.544 342.903 109.286 343.261C109.028 343.618 108.662 343.902 108.188 344.113C109.295 344.488 109.849 345.227 109.849 346.328C109.849 347.201 109.512 347.893 108.838 348.402C108.164 348.912 107.265 349.167 106.14 349.167C105.044 349.167 104.139 348.9 103.424 348.367C102.715 347.828 102.36 347.102 102.36 346.188H103.978C103.978 346.65 104.183 347.049 104.593 347.383C105.009 347.711 105.524 347.875 106.14 347.875C106.761 347.875 107.262 347.731 107.643 347.444C108.023 347.157 108.214 346.785 108.214 346.328C108.214 345.795 108.053 345.414 107.73 345.186C107.414 344.951 106.919 344.834 106.245 344.834H104.619V343.463H106.386C107.493 343.434 108.047 342.977 108.047 342.092ZM117.829 349C117.735 348.812 117.659 348.479 117.601 347.998C116.845 348.783 115.942 349.176 114.894 349.176C113.956 349.176 113.186 348.912 112.582 348.385C111.984 347.852 111.686 347.178 111.686 346.363C111.686 345.373 112.061 344.605 112.811 344.061C113.566 343.51 114.627 343.234 115.992 343.234H117.574V342.487C117.574 341.919 117.404 341.468 117.064 341.134C116.725 340.794 116.224 340.624 115.562 340.624C114.981 340.624 114.495 340.771 114.103 341.063C113.71 341.356 113.514 341.711 113.514 342.127H111.879C111.879 341.652 112.046 341.195 112.38 340.756C112.72 340.311 113.177 339.959 113.751 339.701C114.331 339.443 114.967 339.314 115.658 339.314C116.754 339.314 117.612 339.59 118.233 340.141C118.854 340.686 119.177 341.438 119.2 342.399V346.776C119.2 347.649 119.312 348.344 119.534 348.859V349H117.829ZM115.131 347.761C115.641 347.761 116.124 347.629 116.581 347.365C117.038 347.102 117.369 346.759 117.574 346.337V344.386H116.3C114.308 344.386 113.312 344.969 113.312 346.135C113.312 346.645 113.481 347.043 113.821 347.33C114.161 347.617 114.598 347.761 115.131 347.761ZM121.89 339.49H123.524V347.673H127.901V339.49H129.527V347.673H130.661L130.503 351.821H129.044V349H121.89V339.49ZM138.571 339.49H140.197V349H138.571V342.065L134.186 349H132.56V339.49H134.186V346.434L138.571 339.49ZM142.377 344.157C142.377 343.226 142.559 342.388 142.922 341.644C143.291 340.899 143.801 340.325 144.451 339.921C145.107 339.517 145.854 339.314 146.692 339.314C147.987 339.314 149.033 339.763 149.83 340.659C150.633 341.556 151.034 342.748 151.034 344.236V344.351C151.034 345.276 150.855 346.108 150.498 346.847C150.146 347.579 149.64 348.15 148.978 348.561C148.321 348.971 147.565 349.176 146.71 349.176C145.421 349.176 144.375 348.728 143.572 347.831C142.775 346.935 142.377 345.748 142.377 344.271V344.157ZM144.012 344.351C144.012 345.405 144.255 346.252 144.741 346.891C145.233 347.529 145.89 347.849 146.71 347.849C147.536 347.849 148.192 347.526 148.679 346.882C149.165 346.231 149.408 345.323 149.408 344.157C149.408 343.114 149.159 342.271 148.661 341.626C148.169 340.976 147.513 340.65 146.692 340.65C145.89 340.65 145.242 340.97 144.75 341.608C144.258 342.247 144.012 343.161 144.012 344.351ZM160.843 349H159.217V344.939H154.849V349H153.214V339.49H154.849V343.612H159.217V339.49H160.843V349ZM171.231 349H169.605V344.939H165.237V349H163.603V339.49H165.237V343.612H169.605V339.49H171.231V349ZM175.626 342.769H178.096C179.174 342.78 180.026 343.062 180.653 343.612C181.28 344.163 181.594 344.91 181.594 345.854C181.594 346.803 181.271 347.564 180.627 348.139C179.982 348.713 179.115 349 178.025 349H174V339.49H175.626V342.769ZM184.986 349H183.352V339.49H184.986V349ZM175.626 344.096V347.673H178.043C178.652 347.673 179.124 347.518 179.458 347.207C179.792 346.891 179.959 346.46 179.959 345.915C179.959 345.388 179.795 344.957 179.467 344.623C179.145 344.283 178.69 344.107 178.104 344.096H175.626ZM193.978 339.49H195.604V349H193.978V342.065L189.592 349H187.966V339.49H189.592V346.434L193.978 339.49ZM194.417 336.027C194.417 336.736 194.174 337.308 193.688 337.741C193.207 338.169 192.574 338.383 191.789 338.383C191.004 338.383 190.368 338.166 189.882 337.732C189.396 337.299 189.152 336.73 189.152 336.027H190.479C190.479 336.438 190.591 336.76 190.813 336.994C191.036 337.223 191.361 337.337 191.789 337.337C192.199 337.337 192.519 337.223 192.747 336.994C192.981 336.766 193.099 336.443 193.099 336.027H194.417ZM205.641 344.948H204.454V349H202.819V339.49H204.454V343.516H205.518L208.717 339.49H210.686L206.924 344.061L211.002 349H208.937L205.641 344.948ZM211.775 344.157C211.775 343.226 211.957 342.388 212.32 341.644C212.689 340.899 213.199 340.325 213.85 339.921C214.506 339.517 215.253 339.314 216.091 339.314C217.386 339.314 218.432 339.763 219.229 340.659C220.031 341.556 220.433 342.748 220.433 344.236V344.351C220.433 345.276 220.254 346.108 219.896 346.847C219.545 347.579 219.038 348.15 218.376 348.561C217.72 348.971 216.964 349.176 216.108 349.176C214.819 349.176 213.773 348.728 212.971 347.831C212.174 346.935 211.775 345.748 211.775 344.271V344.157ZM213.41 344.351C213.41 345.405 213.653 346.252 214.14 346.891C214.632 347.529 215.288 347.849 216.108 347.849C216.935 347.849 217.591 347.526 218.077 346.882C218.563 346.231 218.807 345.323 218.807 344.157C218.807 343.114 218.558 342.271 218.06 341.626C217.567 340.976 216.911 340.65 216.091 340.65C215.288 340.65 214.641 340.97 214.148 341.608C213.656 342.247 213.41 343.161 213.41 344.351ZM227.947 346.847L231.182 339.49H233.212V349H231.586V342.083L228.51 349H227.385L224.247 341.934V349H222.621V339.49H224.73L227.947 346.847ZM241.983 339.49H243.609V349H241.983V342.065L237.598 349H235.972V339.49H237.598V346.434L241.983 339.49ZM253.286 340.809H250.096V349H248.47V340.809H245.341V339.49H253.286V340.809ZM258.111 349.176C256.822 349.176 255.773 348.754 254.965 347.91C254.156 347.061 253.752 345.927 253.752 344.509V344.21C253.752 343.267 253.931 342.426 254.288 341.688C254.651 340.943 255.155 340.363 255.8 339.947C256.45 339.525 257.153 339.314 257.909 339.314C259.146 339.314 260.106 339.722 260.792 340.536C261.478 341.351 261.82 342.517 261.82 344.034V344.711H255.378C255.401 345.648 255.674 346.407 256.195 346.987C256.723 347.562 257.391 347.849 258.199 347.849C258.773 347.849 259.26 347.731 259.658 347.497C260.057 347.263 260.405 346.952 260.704 346.565L261.697 347.339C260.9 348.563 259.705 349.176 258.111 349.176ZM257.909 340.65C257.253 340.65 256.702 340.891 256.257 341.371C255.812 341.846 255.536 342.514 255.431 343.375H260.194V343.252C260.147 342.426 259.925 341.787 259.526 341.336C259.128 340.879 258.589 340.65 257.909 340.65ZM270.671 340.809H267.48V349H265.854V340.809H262.726V339.49H270.671V340.809Z" fill="#363636"/>
<line x1="157" y1="83" x2="157" y2="211" stroke="#900228" stroke-width="2"/>
<line x1="157" y1="279" x2="157" y2="309" stroke="#900228" stroke-width="2"/>
<line x1="202" y1="148" x2="156" y2="148" stroke="#900228" stroke-width="2"/>
</svg>
